<svg xmlns="http://www.w3.org/2000/svg" width="315.51" height="150.092" viewBox="0 0 315.51 150.092">
  <g id="Сгруппировать_73517" data-name="Сгруппировать 73517" transform="translate(-0.001)">
    <path id="Контур_34179" data-name="Контур 34179" d="M55.2,129.4h7.789a5.509,5.509,0,0,0,4.526-1.719,5.656,5.656,0,0,0,1.018-4.7L59.688,65c-.913-6.1-4.526-9.155-10.771-9.155H37.62c-5.544,0-9.437,2.561-11.648,7.681L.712,122.35c-.913,2.14-.948,3.859-.106,5.121.842,1.3,2.421,1.929,4.7,1.929h8.1a6.812,6.812,0,0,0,6.911-4.806l4.28-10.874a2.138,2.138,0,0,1,2.246-1.473H45.725a1.911,1.911,0,0,1,2.14,1.789l1.053,9.611C49.268,127.471,51.374,129.4,55.2,129.4ZM31.972,94.85c1.333-3.368,7.719-24.2,10.561-24.2,2.14,0,3.122,20.94,3.508,24.413.14,1.368-.491,2.034-1.93,2.034H33.551a1.844,1.844,0,0,1-1.579-.6A1.69,1.69,0,0,1,31.972,94.85Zm76.87-23.782h19.507c3.719,0,5.894-1.824,6.631-5.542l.421-2.56a6.243,6.243,0,0,0-.912-4.735,5.9,5.9,0,0,0-4.315-2.07c-5.684-.421-15.016-.631-27.928-.631-5.192,0-9.473,1.368-12.875,4.1a17.685,17.685,0,0,0-6.21,11.434L75.9,122.876a5.834,5.834,0,0,0,1.052,4.806,5.76,5.76,0,0,0,4.6,1.719H89.44c3.754,0,5.93-1.894,6.491-5.647l3.088-22.168a1.843,1.843,0,0,1,2.035-1.824h19.4c3.859,0,6-1.894,6.421-5.648l.21-1.508A5.556,5.556,0,0,0,126,87.87a5.891,5.891,0,0,0-4.561-1.649H103.3c-1.438,0-2.035-.736-1.824-2.244l1.088-8a5.837,5.837,0,0,1,1.754-3.823C105.193,71.419,106.7,71.068,108.842,71.068Zm59.5,0h19.507c3.684,0,5.894-1.824,6.631-5.542l.421-2.56a6.24,6.24,0,0,0-.912-4.735,5.9,5.9,0,0,0-4.315-2.07c-5.684-.421-15.016-.631-27.928-.631-5.192,0-9.473,1.368-12.875,4.1a17.877,17.877,0,0,0-6.245,11.434L135.4,122.876a5.834,5.834,0,0,0,1.052,4.806,5.76,5.76,0,0,0,4.6,1.719h7.894c3.754,0,5.93-1.894,6.491-5.647l3.088-22.168a1.843,1.843,0,0,1,2.035-1.824h19.4c3.859,0,5.964-1.894,6.421-5.648l.21-1.508A5.556,5.556,0,0,0,185.5,87.87a5.891,5.891,0,0,0-4.561-1.649H162.8c-1.438,0-2.035-.736-1.824-2.244l1.087-8c.281-1.859.842-3.122,1.755-3.823C164.7,71.419,166.2,71.068,168.345,71.068Z" transform="translate(0.001 -16.4)" fill="#fff"/>
    <g id="Сгруппировать_73432" data-name="Сгруппировать 73432" transform="translate(203.025 0)">
      <path id="Контур_34180" data-name="Контур 34180" d="M321.974,84.01l-20.818,14.2h0l-3.558,2.428-5.054,35.973v0l-4.375,31.14a5.416,5.416,0,0,0,8.548,5.057l5.419-3.7h0l14-9.544L327.251,80.41l-5.277,3.6Z" transform="translate(-288.119 -23.748)" fill="#00a44e" fill-rule="evenodd"/>
      <path id="Контур_34181" data-name="Контур 34181" d="M404.191,70.6l-10.628-8.981h0L374.771,45.741h0L355.531,29.483h0L342.226,18.239h0L326.547,4.988h0l-4.389-3.709a5.416,5.416,0,0,0-8.865,3.442l-1.979,14.04-4.353,30.877,8.768-5.977h0l14.414-9.826a16.028,16.028,0,0,1,3.839-1.982q.5-.178,1-.316c.111-.031.221-.066.332-.094.435-.111.871-.2,1.307-.274.085-.013.169-.02.254-.033q.537-.077,1.072-.116c.134-.009.267-.016.4-.023A15.86,15.86,0,0,1,353.1,39.767a15.286,15.286,0,0,1,1.424,8.852L344.46,120.261l18.416-12.569h0l26.848-18.323h0L402.5,80.647C406.619,77.838,407.393,73.307,404.191,70.6Z" transform="translate(-293.684 0)" fill="#00a44e" fill-rule="evenodd"/>
    </g>
  </g>
</svg>
