<svg xmlns="http://www.w3.org/2000/svg" width="30.54" height="25.7" viewBox="0 0 30.54 25.7">
  <path id="Контур_34138" data-name="Контур 34138" d="M548.389,466.31a19.4,19.4,0,0,0-7.971-5.88l5.633-5.633a.582.582,0,1,0-.823-.823L539.206,460a18.937,18.937,0,0,0-5.835-.908,19.4,19.4,0,0,0-15.018,7.221l-.252.344.252.343a19.409,19.409,0,0,0,7.971,5.881l-5.631,5.632a.582.582,0,1,0,.823.823l6.021-6.022a18.973,18.973,0,0,0,5.835.908A19.4,19.4,0,0,0,548.389,467l.253-.343Zm-21.141,5.644a19.185,19.185,0,0,1-7.676-5.3,19.1,19.1,0,0,1,8.818-5.68,7.533,7.533,0,0,0-.757,10.6Zm-.278-5.3a6.4,6.4,0,0,1,10.5-4.917l-2.073,2.073a3.486,3.486,0,0,0-4.863,4.863l-2.073,2.073A6.371,6.371,0,0,1,526.97,466.654Zm8.4-1.176a2.3,2.3,0,0,1,.33,1.176,2.313,2.313,0,0,1-3.5,2Zm-4,2.35a2.313,2.313,0,0,1,3.173-3.173Zm2,5.227a6.37,6.37,0,0,1-4.093-1.486l2.073-2.073a3.487,3.487,0,0,0,4.863-4.864l2.073-2.073a6.4,6.4,0,0,1-4.917,10.5Zm4.981-.723a7.53,7.53,0,0,0,.757-10.594l.385-.386a19.191,19.191,0,0,1,7.676,5.3A19.1,19.1,0,0,1,538.353,472.333Z" transform="translate(-518.101 -453.804)" fill="#2c334a"/>
</svg>
