<svg xmlns="http://www.w3.org/2000/svg" xmlns:xlink="http://www.w3.org/1999/xlink" width="490.279" height="717.667" viewBox="0 0 490.279 717.667">
  <defs>
    <clipPath id="clip-path">
      <path id="Контур_34193" data-name="Контур 34193" d="M-1618.808,2956.974c-3.818,14.544-8.678,43.457-9.71,48.19s-14.335,31.287-19.924,50.554-5.527,21.324-5.527,21.324l-27.662,12.966a163.327,163.327,0,0,1,16.857-49.663c13.365-24.5,21.692-30.921,21.755-38.563s-1.108-36.7,2.639-48.857S-1614.064,2938.907-1618.808,2956.974Z" transform="translate(1681.631 -2943.599)" fill="none"/>
    </clipPath>
    <clipPath id="clip-path-2">
      <path id="Контур_34199" data-name="Контур 34199" d="M-1619.4,2956.979c-3.819,14.544-8.678,43.457-9.711,48.19s-14.335,31.287-19.924,50.555-9.3,26.619-9.3,26.619-10.4,2.5-12.84,3.345c-3.61,1.251-11.365,5.039-11.365,5.039s3.812-25.879,17.176-50.378,21.692-30.921,21.755-38.563-1.108-36.7,2.638-48.858S-1614.66,2938.91-1619.4,2956.979Z" transform="translate(1682.546 -2943.603)" fill="none"/>
    </clipPath>
    <clipPath id="clip-path-3">
      <path id="Контур_34198" data-name="Контур 34198" d="M-1685.725,3200.07c.706,3.9,14.853,15.027,17.623,9.458l-13.279,46.829s-37.721,15.832-37.161,14.933S-1705.257,3221.425-1685.725,3200.07Z" transform="translate(1718.548 -3200.07)" fill="none"/>
    </clipPath>
    <clipPath id="clip-path-4">
      <path id="Контур_34210" data-name="Контур 34210" d="M-1598.327,2723.461c1.649-6.867,5.718-8.839,9.943-9.752,6.456-1.4,9.044-.286,12.68,1.606,3.862,2.01,6.416,7.319,8.4,13.459,1.221,3.772,2.594,8.963,5.248,18.707,1.087,3.991,1.863,7.889,3.834,11.59,1.775,3.333,6.176,3.627,5.96,8.183-.327,6.9-11.063,1.516-23.375,7.006-14.808,6.605-21.819,18.664-21.447,24.3-8.526-14.744-1.586-29.836-2.716-41.639C-1600.8,2746.425-1600.784,2733.686-1598.327,2723.461Z" transform="translate(1601.394 -2713.082)" fill="none"/>
    </clipPath>
    <clipPath id="clip-path-5">
      <path id="Контур_34214" data-name="Контур 34214" d="M-1576.044,2729.481c-.936-6.6-7.095-10.126-9.991-4.561-1.507,2.9-1.869,21.708,3.808,21.941C-1578.648,2747.008-1575.069,2736.354-1576.044,2729.481Z" transform="translate(1586.99 -2722.16)" fill="#90353b"/>
    </clipPath>
    <clipPath id="clip-path-6">
      <path id="Контур_34221" data-name="Контур 34221" d="M-1476.151,2844.521c6.914-2.237,21.514-6.262,27.922-8.074s13.632-3.291,18.409-1.578,4.81,8.669,4.379,20.412c-.415,11.308-.394,41.894,11.079,60.678,4.623,31.069-15.038,26.673-17.187,31.7-6.429-21.1-10.648-35.5-10.91-56.894s2.476-33.232,2.447-37.007-1.792-2.494-4.379-1.407-24.943,11.625-31.721,14.81S-1494.51,2850.463-1476.151,2844.521Z" transform="translate(1486.02 -2834.111)" fill="#90353b"/>
    </clipPath>
    <clipPath id="clip-path-7">
      <path id="Контур_34227" data-name="Контур 34227" d="M-1476.151,2844.521c6.914-2.237,21.514-6.262,27.922-8.074s13.632-3.291,18.409-1.578,4.843,9,4.379,20.412c-.459,11.306-.394,41.894,11.079,60.678,5.039,25.2-15.038,26.673-17.187,31.7-6.429-21.1-10.648-35.5-10.91-56.894s2.476-33.232,2.447-37.007-1.792-2.494-4.379-1.407-24.943,11.625-31.721,14.81S-1494.51,2850.463-1476.151,2844.521Z" transform="translate(1486.02 -2834.111)" fill="none"/>
    </clipPath>
    <clipPath id="clip-path-8">
      <path id="Контур_34226" data-name="Контур 34226" d="M-1370.5,2993.115c5.5-9.884,21.791-21.01,22.241-10.919l15.414,44.43-24.148,39.764S-1373.306,3020.038-1370.5,2993.115Z" transform="translate(1370.826 -2978.217)" fill="none"/>
    </clipPath>
    <clipPath id="clip-path-9">
      <path id="Контур_34231" data-name="Контур 34231" d="M-1524.019,2875.572a9.9,9.9,0,0,1-6.6-5.885,27.746,27.746,0,0,1-1.734-16.045c.99-4.406,2.177-5.445,3.623-6.187-11.14,2.46-23.149,4.958-27.339,8.394a18.389,18.389,0,0,1-6.251,3.544,46.259,46.259,0,0,0-5.677,2.147c-13.827,6.166-20.851,17.083-21.419,23.091,0,.051-.007.1-.012.149a7.437,7.437,0,0,0-.016,1.058c-.024-.042-.04-.084-.065-.125a82.269,82.269,0,0,0,.045,9.31c.167,5.188.7,9.921.491,16.854.874,4.669,8.533,9.126,16.133,8.406,10.062-.955,13.978-5.214,15.406-8.374.39-5.005.781-14.546,4.272-23.966,3.721-1.141,7.694-2.883,12.244-4.6A157.116,157.116,0,0,0-1524.019,2875.572Z" transform="translate(1589.631 -2847.454)" fill="none"/>
    </clipPath>
    <linearGradient id="linear-gradient" x1="1.876" y1="-0.979" x2="1.221" y2="0.033" gradientUnits="objectBoundingBox">
      <stop offset="0.018" stop-color="#f6f3e7"/>
      <stop offset="0.61" stop-color="#a7a69f"/>
    </linearGradient>
    <clipPath id="clip-path-10">
      <path id="Контур_34241" data-name="Контур 34241" d="M-1278.514,3022.546a10.1,10.1,0,0,0-8.262-3.917c-.539.056-1.061.1-1.615.172a30.685,30.685,0,0,0-4.637.713c-7.521,1.749-15.757,8.86-18.982,9.112-7.307.571-8.276,12.2-9.672,21.4-.578,3.808-6.323,6.846-9.515,9-3.349,2.262-3.825,7.491-2.907,10.273a61.635,61.635,0,0,0,3.619,7.667c1.095,2.1,2.161,3.841,2.932,4.327a8.436,8.436,0,0,0,.831.462c-1.466-1.923-.953-7.707,2.93-11.514,5.458-5.351,9.86-7.879,13.866-15.823,3.164-6.274,2.757-9.239,5.542-16.725,3.873-10.412,10.344-13.641,16.673-15.514,4.833-1.43,10.138.472,10.959,4.581A10.549,10.549,0,0,0-1278.514,3022.546Z" transform="translate(1334.515 -3018.628)" fill="none"/>
    </clipPath>
    <clipPath id="clip-path-11">
      <path id="Контур_34243" data-name="Контур 34243" d="M-1542.1,2684.785c-.674-1.557-3.809-1.3-4.643,1.007-1.827-1.325-3.936,1.629-3.141,4.024-1.38-.031-1.324,3.122-.51,4.018-2.238,1.184-6.4,4.575-7.428,7.1-7.707,2.431-10.533,1.376-15.673.135-4.677-1.128-8.793-1.294-9.256,1.472-.552,3.292,3.423,3.857,6.5,4.73,5.144,1.462,11.008,2.367,20.437,1.543a7.279,7.279,0,0,0,1.388-.258,33.4,33.4,0,0,0,14.453-8.235c5.007-5.28,4.366-12.618,2.343-12.885C-1537.634,2684.888-1540.258,2683.274-1542.1,2684.785Z" transform="translate(1582.803 -2683.801)" fill="none"/>
    </clipPath>
  </defs>
  <g id="Сгруппировать_73595" data-name="Сгруппировать 73595" transform="translate(-312.289 -3437.265)">
    <g id="Сгруппировать_73529" data-name="Сгруппировать 73529" transform="translate(622.5 3501.48)">
      <path id="Контур_34191" data-name="Контур 34191" d="M-1618.16,2956.979c-3.818,14.544-8.678,43.457-9.711,48.19s-14.335,31.287-19.924,50.555-10.033,25.948-10.033,25.948-9.69,2.552-12.825,3.7c-2.566.937-9.979,4.629-9.979,4.629a156.925,156.925,0,0,1,16.505-49.648c13.365-24.5,21.692-30.921,21.755-38.563s-1.108-36.7,2.638-48.858S-1613.417,2938.91-1618.16,2956.979Z" transform="translate(1681.303 -2832.207)" fill="#90353b"/>
      <g id="Сгруппировать_73437" data-name="Сгруппировать 73437" transform="translate(0.321 111.394)">
        <g id="Сгруппировать_73436" data-name="Сгруппировать 73436" clip-path="url(#clip-path)">
          <path id="Контур_34192" data-name="Контур 34192" d="M-1619.385,3036.938c-6.992,1.4-9.6.152-12.192,10.912-1.49,6.177-2.529,10.565-4.366,12.646-4.688,5.308-21.332,39.6-19.308,54.23s-21.417,18.741-16.662-2.277,29.01-48.025,28.809-61.083,4.719-28.224,6.3-32.4S-1610.495,3020.133-1619.385,3036.938Z" transform="translate(1675.734 -2991.673)" fill="#662429"/>
        </g>
      </g>
      <g id="Сгруппировать_73442" data-name="Сгруппировать 73442" transform="translate(0 111.395)">
        <g id="Сгруппировать_73441" data-name="Сгруппировать 73441" clip-path="url(#clip-path-2)">
          <g id="Сгруппировать_73440" data-name="Сгруппировать 73440" transform="translate(-12.621 89.895)">
            <path id="Контур_34194" data-name="Контур 34194" d="M-1685.731,3200.076c.705,3.9,14.852,15.027,17.623,9.459l-13.278,46.828s-37.722,15.831-37.161,14.932S-1705.263,3221.431-1685.731,3200.076Z" transform="translate(1718.554 -3200.074)" fill="#f6f3e7"/>
            <g id="Сгруппировать_73439" data-name="Сгруппировать 73439" transform="translate(0.002)">
              <g id="Сгруппировать_73438" data-name="Сгруппировать 73438" clip-path="url(#clip-path-3)">
                <path id="Контур_34195" data-name="Контур 34195" d="M-1657.275,3190.772a124.026,124.026,0,0,0-7.852,14.146q-3.513,7.3-6.307,14.911a141.4,141.4,0,0,0-7.8,31.306l-1.527-.194a142.709,142.709,0,0,1,8.3-31.5q2.914-7.61,6.549-14.911a124.547,124.547,0,0,1,8.1-14.128Z" transform="translate(1694.006 -3193.795)" fill="#ff3736"/>
                <path id="Контур_34196" data-name="Контур 34196" d="M-1650.634,3199.587c-5.187,6.81-16.657,31.063-20.185,58.776" transform="translate(1687.548 -3199.756)" fill="none" stroke="#ff3736" stroke-miterlimit="10" stroke-width="3.681"/>
                <path id="Контур_34197" data-name="Контур 34197" d="M-1618.386,3036.9c-6.992,1.4-9.6.152-12.193,10.912-1.489,6.177-2.528,10.565-4.366,12.646-4.687,5.308-21.331,39.6-19.308,54.231s-21.417,18.74-16.663-2.278,29.011-48.026,28.809-61.084,4.719-28.224,6.3-32.4S-1609.5,3020.092-1618.386,3036.9Z" transform="translate(1688.025 -3081.542)" fill="#eaaf6d" style="mix-blend-mode: multiply;isolation: isolate"/>
              </g>
            </g>
          </g>
        </g>
      </g>
      <path id="Контур_34200" data-name="Контур 34200" d="M-1604.139,2738.282a26.78,26.78,0,0,0-10.729,15.061,2.039,2.039,0,0,0-.087.777c.686,7.766,4.587,15.857,4.587,15.857s-1.936,3.5-.718,6.953c-1.212.033-1.7,1.185-.215,2.855,1,1.121,2.874,1.266,4.552,1.026,3.772-.54,4.492-7.014,5.373-15.954S-1598.335,2734.094-1604.139,2738.282Z" transform="translate(1638.651 -2698.511)" fill="#662429"/>
      <path id="Контур_34201" data-name="Контур 34201" d="M-1423.4,2875.48c4-2.053,3.307-7.746,1.771-16.232s-4.162-12.432-6.48-11.886c-6.068,2.3-7.154,10.985-6.39,18.441S-1428.466,2878.08-1423.4,2875.48Z" transform="translate(1521.583 -2769.668)" fill="#171329"/>
      <path id="Контур_34202" data-name="Контур 34202" d="M-1581.459,2652.672c-2.179,1.677-4.391,2.7-5.134,5.967s-.719,3.956.723,6.2c1.453,2.09,2.012,2.1,2.668,3.066C-1580.711,2664.723-1580.412,2655.719-1581.459,2652.672Z" transform="translate(1620.539 -2643.251)" fill="#171329"/>
      <path id="Контур_34203" data-name="Контур 34203" d="M-1570.3,2643.494c-7.374-9.426-15.36-2.674-17.242-.309-1.863,2.341-2,4.245-1.822,7.261a9.14,9.14,0,0,0,1.971,5.268,8.272,8.272,0,0,1,1.067-8.674C-1585.2,2645.532-1579.363,2638.075-1570.3,2643.494Z" transform="translate(1622.065 -2634.129)" fill="#ffc965"/>
      <path id="Контур_34204" data-name="Контур 34204" d="M-1565.038,2647.416a7.137,7.137,0,0,0-1.506-2.378c-3.936-3.066-10.26-.769-11.881,1.721-1.138,1.745-.354,3.935-.126,5.52a15.025,15.025,0,0,1,.014,3.168,25.985,25.985,0,0,1-1.8-1.929c-1.016-1.128-2.592.235-1.9,2.632a4.824,4.824,0,0,0,3.091,2.958,15.227,15.227,0,0,1-1.026,2.88,19.529,19.529,0,0,1,1.831,3.871,8.258,8.258,0,0,1-.628,5.946l8.162-.157s.794-4.28,2.2-5.652c3.048-2.962,3.85-4.326,4.309-7.408A23.71,23.71,0,0,0-1565.038,2647.416Z" transform="translate(1617.505 -2637.338)" fill="#90353b"/>
      <path id="Контур_34205" data-name="Контур 34205" d="M-1577.7,2648.457c2.555-3.807,4.861-5.969,10.913-6.219s5.073,4.862,5.073,4.862l-.174.637a16.844,16.844,0,0,1-1.33,1.742c-.408-.45-.926-1.406-1.323-1.734a.747.747,0,0,0-.8.027l.53,3.2S-1572.475,2653.528-1577.7,2648.457Z" transform="translate(1614.453 -2636.469)" fill="#171329"/>
      <path id="Контур_34206" data-name="Контур 34206" d="M-1553.26,2657.4c.688.847,2.7,3.529,3.263,4.227a11.112,11.112,0,0,1-2.19,1.4,24.636,24.636,0,0,1-.937-3.675c-.348-.158-3.657,1.737-5.831-1.647C-1556.951,2656.4-1553.733,2657.259-1553.26,2657.4Z" transform="translate(1602.276 -2646.057)" fill="#171329"/>
      <g id="Сгруппировать_73445" data-name="Сгруппировать 73445" transform="translate(28.442 30.595)">
        <path id="Контур_34207" data-name="Контур 34207" d="M-1598.336,2723.481c1.65-6.867,5.718-8.839,9.943-9.752,6.455-1.395,9.044-.287,12.68,1.606,3.863,2.01,6.416,7.319,8.4,13.459,1.222,3.772,2.6,8.963,5.249,18.706,1.087,3.993,1.863,7.89,3.834,11.591,1.775,3.333,6.176,3.626,5.96,8.183-.327,6.9-11.064,1.516-23.375,7.005-14.809,6.6-21.82,18.664-21.447,24.3-8.526-14.743-1.585-29.836-2.715-41.638C-1600.808,2746.444-1600.792,2733.706-1598.336,2723.481Z" transform="translate(1601.403 -2713.095)" fill="#f6f3e7"/>
        <g id="Сгруппировать_73444" data-name="Сгруппировать 73444" transform="translate(0.003)">
          <g id="Сгруппировать_73443" data-name="Сгруппировать 73443" clip-path="url(#clip-path-4)">
            <path id="Контур_34208" data-name="Контур 34208" d="M-1537.461,2727.935c4.193,4.452,4.346,13.91,6.138,19.976a8.272,8.272,0,0,0-5.584.2c-1.993.621-9.225,1.793-11.382,2.97-2.458-8.84-2.876-20.111-3.451-25,.136-1.256.2-2.02,3.672-4.369C-1544.278,2719.153-1538.8,2727.131-1537.461,2727.935Z" transform="translate(1569.144 -2718.361)" fill="#cec9b7"/>
            <path id="Контур_34209" data-name="Контур 34209" d="M-1599.146,2726.87c-2.045,3.376-5.632,13.494-5.583,16.3.027,1.558,1.643,4.9,3.915,7.55a8.842,8.842,0,0,1,.5,10.471c-4.813,7.636-4.48,15.637,15.115,7.4-13.13,6.752-16.549,9.993-11.452,17.61,4.4,6.576-6.207,22.243-11.151,22.5s-10.438-.739-13-14.1,4.14-26.961,1.783-47.258,5.865-26.681,10.125-29.9C-1602.045,2712.24-1593.729,2717.932-1599.146,2726.87Z" transform="translate(1614.387 -2714.622)" fill="#cec9b7"/>
          </g>
        </g>
      </g>
      <path id="Контур_34211" data-name="Контур 34211" d="M-1575.568,2729.481c-.936-6.6-7.095-10.126-9.99-4.561-1.507,2.9-.859,14.7,4.818,14.933C-1577.163,2740-1574.592,2736.354-1575.568,2729.481Z" transform="translate(1620.006 -2688.383)" fill="#171329"/>
      <g id="Сгруппировать_73447" data-name="Сгруппировать 73447" transform="translate(33.494 33.778)">
        <path id="Контур_34212" data-name="Контур 34212" d="M-1576.044,2729.481c-.936-6.6-7.095-10.126-9.991-4.561-1.507,2.9-1.869,21.708,3.808,21.941C-1578.648,2747.008-1575.069,2736.354-1576.044,2729.481Z" transform="translate(1586.99 -2722.16)" fill="#90353b"/>
        <g id="Сгруппировать_73446" data-name="Сгруппировать 73446" clip-path="url(#clip-path-5)">
          <path id="Контур_34213" data-name="Контур 34213" d="M-1587.448,2738.392c2.927-7.568-4.083-8.037-6.774-7.377-14.171,9.444-5.619,17.625-4.335,17.5C-1594.992,2748.179-1589.953,2744.867-1587.448,2738.392Z" transform="translate(1596.924 -2727.773)" fill="#662429"/>
        </g>
      </g>
      <path id="Контур_34215" data-name="Контур 34215" d="M-1542.819,2717.871c3.847,1.817,8.5,9.417,9.481,23.176-1.127-.734-2.825-.526-4.983.172-3.3,1.07-7.661,1.213-11.676,5-1.777-10.2-3.754-19.085-4.562-24.192.862-1.162,2.559-3.815,5.635-4.677A7.778,7.778,0,0,1-1542.819,2717.871Z" transform="translate(1599.42 -2685.016)" fill="#fff"/>
      <path id="Контур_34216" data-name="Контур 34216" d="M-1551.487,2730.143a5.762,5.762,0,0,1,7.516-4c1.187.547,3.536,2.095,2.412,4.645a12.557,12.557,0,0,0-1.084,3.1s3.13-1.366,4.49,2.779c1.112,3.391.7,6.67-1.357,8.437a17.664,17.664,0,0,1-5.247,2.738l.177-5.261a5.893,5.893,0,0,0,3.47-1.967c.937-1.218.579-2.913-.823-3.2-1.851-.382-3.987,1.493-3.987,1.493l-1.194-3.053s2.617-3.734,2.918-5.628c.295-1.855-1.206-3-2.265-2.146s-2.517,4.064-2.517,4.064Z" transform="translate(1597.425 -2690.727)" fill="#a1c468"/>
      <g id="Сгруппировать_73448" data-name="Сгруппировать 73448" transform="translate(57.177 33.998)">
        <path id="Контур_34217" data-name="Контур 34217" d="M-1512.435,2734.235a6.037,6.037,0,0,0-2.616-.679,57.42,57.42,0,0,1-2.392-9.223c-.724-.514-1.265-.932-1.978-1.544.955,3.984,1.519,6.537,2.728,10.449.379,1.226.919,2.59,1.459,4.363a4.35,4.35,0,0,1,4.035.286A33.227,33.227,0,0,0-1512.435,2734.235Z" transform="translate(1519.422 -2722.789)" fill="#a1c468"/>
        <path id="Контур_34218" data-name="Контур 34218" d="M-1510.574,2736.906c1.9,5.1,3.131,9.485,3.873,11.973a1.936,1.936,0,0,1,1.574.466,99.055,99.055,0,0,0-4.9-13.032C-1510.433,2736.538-1510.18,2736.647-1510.574,2736.906Z" transform="translate(1513.675 -2731.573)" fill="#a1c468"/>
      </g>
      <g id="Сгруппировать_73450" data-name="Сгруппировать 73450" transform="translate(68.885 73.017)">
        <path id="Контур_34219" data-name="Контур 34219" d="M-1476.151,2844.521c6.914-2.237,21.514-6.262,27.922-8.074s13.632-3.291,18.409-1.578,4.81,8.669,4.379,20.412c-.415,11.308-.394,41.894,11.079,60.678,4.623,31.069-15.038,26.673-17.187,31.7-6.429-21.1-10.648-35.5-10.91-56.894s2.476-33.232,2.447-37.007-1.792-2.494-4.379-1.407-24.943,11.625-31.721,14.81S-1494.51,2850.463-1476.151,2844.521Z" transform="translate(1486.02 -2834.111)" fill="#90353b"/>
        <g id="Сгруппировать_73449" data-name="Сгруппировать 73449" clip-path="url(#clip-path-6)">
          <path id="Контур_34220" data-name="Контур 34220" d="M-1434.95,2849.676c-1.653,3.072-2.007,9.586,5.578,7.571s11.688-3.16,16.51-4.7c1.743,2.427,6.959,7.333,11.313,5.407,3.846-1.7,2.419,3.875,2.248,12.315s4.461,43.641,11.676,51.382-.407,23.042-15.5,31.278-17.324-1.6-20.037-23.372,4.295-67.475-9.043-57.787-17.391,11.369-17.063-2.27S-1448.268,2849.319-1434.95,2849.676Z" transform="translate(1462.163 -2844.211)" fill="#662429"/>
        </g>
      </g>
      <g id="Сгруппировать_73455" data-name="Сгруппировать 73455" transform="translate(68.885 73.017)">
        <g id="Сгруппировать_73454" data-name="Сгруппировать 73454" clip-path="url(#clip-path-7)">
          <g id="Сгруппировать_73453" data-name="Сгруппировать 73453" transform="translate(40.376 50.51)">
            <path id="Контур_34222" data-name="Контур 34222" d="M-1370.5,2993.112c5.5-9.883,21.791-21.009,22.241-10.919l15.414,44.43L-1357,3066.387S-1373.309,3020.035-1370.5,2993.112Z" transform="translate(1370.829 -2978.214)" fill="#f6f3e7"/>
            <g id="Сгруппировать_73452" data-name="Сгруппировать 73452" transform="translate(0.001 0.001)">
              <g id="Сгруппировать_73451" data-name="Сгруппировать 73451" clip-path="url(#clip-path-8)">
                <path id="Контур_34223" data-name="Контур 34223" d="M-1355.21,2987.562c-.094,10.062,1.925,20.075,4.519,29.814a170.286,170.286,0,0,0,10.345,28.409l-1.742.843a171.9,171.9,0,0,1-10.159-28.84c-2.51-9.861-4.448-19.978-4.245-30.257Z" transform="translate(1361.525 -2984.267)" fill="#ff3736"/>
                <path id="Контур_34224" data-name="Контур 34224" d="M-1337.428,3031.417a122.476,122.476,0,0,1-9.986-25.754,147.1,147.1,0,0,1-4.68-27.271l1.931-.125a145.441,145.441,0,0,0,4.107,27.042,121.33,121.33,0,0,0,9.4,25.7Z" transform="translate(1358.66 -2978.25)" fill="#ff3736"/>
                <path id="Контур_34225" data-name="Контур 34225" d="M-1355.138,2976.186c-3.406,8.334-8.283,12.881-5.771,27.979s5.405,18.28,8,20.625.382,13.139-8.021,20.2-14.631,7.436-20.667-12.944a81.984,81.984,0,0,1,.571-48.655C-1377.521,2972.476-1353.209,2971.466-1355.138,2976.186Z" transform="translate(1380.038 -2975.16)" fill="#eaaf6d" style="mix-blend-mode: multiply;isolation: isolate"/>
              </g>
            </g>
          </g>
        </g>
      </g>
      <path id="Контур_34228" data-name="Контур 34228" d="M-1524.019,2875.572a9.9,9.9,0,0,1-6.6-5.885,27.746,27.746,0,0,1-1.734-16.045c.99-4.406,2.177-5.445,3.623-6.187-11.14,2.46-23.149,4.958-27.339,8.394a18.389,18.389,0,0,1-6.251,3.544,46.259,46.259,0,0,0-5.677,2.147c-13.827,6.166-20.851,17.083-21.419,23.091,0,.051-.007.1-.012.149a7.437,7.437,0,0,0-.016,1.058c-.024-.042-.04-.084-.065-.125a82.269,82.269,0,0,0,.045,9.31c.167,5.188.7,9.921.491,16.854.874,4.669,8.533,9.126,16.133,8.406,10.062-.955,13.978-5.214,15.406-8.374.39-5.005.781-14.546,4.272-23.966,3.721-1.141,7.694-2.883,12.244-4.6A157.116,157.116,0,0,0-1524.019,2875.572Z" transform="translate(1622.199 -2769.76)" fill="#ffc965"/>
      <path id="Контур_34229" data-name="Контур 34229" d="M-1581.663,2970.95a5.311,5.311,0,0,1-2.259-2.644c.792-1.936,1.465-4.2.573-13.641-.464-4.907-1.758-9.967-1.369-12.7.4-2.846,1.026-5.12,3.4-7.45C-1584.183,2939.641-1576.8,2960.6-1581.663,2970.95Z" transform="translate(1619.055 -2826.302)" fill="#f6f3e7"/>
      <g id="Сгруппировать_73457" data-name="Сгруппировать 73457" transform="translate(32.568 77.694)">
        <g id="Сгруппировать_73456" data-name="Сгруппировать 73456" clip-path="url(#clip-path-9)">
          <path id="Контур_34230" data-name="Контур 34230" d="M-1544.99,2870.649A200.227,200.227,0,0,0-1564,2877.42c-8.3,3.6-13.194,1.207-14.546-.781-2.761-4.058,5.752-7.673,8.711-12.922-8.635,2.331-22.387,5.363-33.951,15.532-6.683,5.875-8.761,14.568-9.408,24.029-1.166,7.47-1.256,14.761-2.589,20.308a18.817,18.817,0,0,0,2.31,2.693c.8,14.306,20.937,13.77,23.865,4.546,5.654-17.817,13.509-30.658,17.648-32.563,16.574,1.67,35.865-9.016,35.865-9.016Z" transform="translate(1606.62 -2858.017)" fill="#eaaf6d" style="mix-blend-mode: multiply;isolation: isolate"/>
        </g>
      </g>
      <path id="Контур_34232" data-name="Контур 34232" d="M-1559.944,2656.781c.211-1.071,1.919-1.475,3.079-1.45a11.35,11.35,0,0,1,2.652.505l-.31.794a17.991,17.991,0,0,0-2.742-.365A3.93,3.93,0,0,0-1559.944,2656.781Z" transform="translate(1602.917 -2644.977)" fill="#171329"/>
      <path id="Контур_34233" data-name="Контур 34233" d="M-1537.446,2656.772c.778-.381,1.551-.34,1.743-.019a1.465,1.465,0,0,1,.109.833s-.014-.569-.657-.417a7.212,7.212,0,0,0-1.023.317Z" transform="translate(1588.305 -2645.737)" fill="#171329"/>
      <path id="Контур_34234" data-name="Контур 34234" d="M-1577.376,2635.515c3.32-3.377,9.16-3.364,11.692-1.877a4.667,4.667,0,0,1,1.915,2.827c4.471-5.981,2.1-9.431-4.351-10.536-8.522-1.46-11.273,9.25-12.6,12.629C-1580.834,2638.851-1579.085,2637.253-1577.376,2635.515Z" transform="translate(1616.415 -2625.794)" fill="#c30114"/>
      <path id="Контур_34235" data-name="Контур 34235" d="M-1545.159,2677.249a31.739,31.739,0,0,1-5.752.424C-1549.771,2680.724-1545.969,2679.391-1545.159,2677.249Z" transform="translate(1597.051 -2659.213)" fill="#171329"/>
      <path id="Контур_34236" data-name="Контур 34236" d="M-1542.1,2684.785c-.674-1.557-3.809-1.3-4.643,1.007-1.827-1.325-3.936,1.629-3.141,4.024a1.513,1.513,0,0,0-1.125,2.521c-2.844,1.975-4.015,4.078-6.03,8.34-7.706,2.431-11.316,1.637-16.456.4-4.677-1.128-8.793-1.294-9.256,1.472-.552,3.292,3.423,3.857,6.5,4.73,5.144,1.462,11.008,2.367,20.437,1.543a7.279,7.279,0,0,0,1.388-.258,33.4,33.4,0,0,0,14.453-8.235c5.007-5.28,4.366-12.618,2.343-12.885C-1537.634,2684.888-1540.258,2683.274-1542.1,2684.785Z" transform="translate(1617.764 -2663.469)" fill="#90353b"/>
      <g id="Сгруппировать_73460" data-name="Сгруппировать 73460" transform="translate(121.989 137.693)">
        <path id="Контур_34237" data-name="Контур 34237" d="M-1274.435,3023.783c-8.566,1.6-21.891,11.386-24.468,32.043-.57,4.568-2.277,8.1-10.169,14.258-7.574,5.912-6.727,12.828-5.16,14.885,4.055,1.974,16.064-4.4,20.641-7.291,14.153-8.927,30.365-31.715,29.62-44.64C-1263.665,3028.921-1266.419,3022.284-1274.435,3023.783Z" transform="translate(1322.025 -3021.836)" fill="#171329"/>
        <path id="Контур_34238" data-name="Контур 34238" d="M-1312.188,3053.545c9.513-18.619,9.984-29.769,16.738-32.508a23.611,23.611,0,0,1,11.365-1.879,23.869,23.869,0,0,0-8.943.559c-7.521,1.749-15.757,8.859-18.982,9.111-7.307.572-8.276,12.2-9.672,21.4-.578,3.808-6.323,6.846-9.515,9-3.349,2.262-3.825,7.491-2.907,10.273a61.671,61.671,0,0,0,3.619,7.667C-1330.972,3070.591-1318.252,3065.412-1312.188,3053.545Z" transform="translate(1334.515 -3018.831)" fill="#f6f3e7"/>
        <path id="Контур_34239" data-name="Контур 34239" d="M-1279.771,3018.629a25.2,25.2,0,0,0-8.674,2.206,22.8,22.8,0,0,0-13.091,14.017c-1.453,4.171-2.63,13.855-5.589,19.646-3.208,6.278-9.162,9.16-13.239,13.711-3.364,3.757-3.74,6.266-3.116,8.763,1.095,2.1,2.161,3.841,2.932,4.327a8.466,8.466,0,0,0,.832.462c-1.466-1.923-.953-7.707,2.93-11.514,5.458-5.351,9.86-7.879,13.865-15.823,3.164-6.274,2.757-9.239,5.542-16.725,3.873-10.412,10.344-13.641,16.673-15.514,4.832-1.43,10.138.472,10.958,4.581a10.546,10.546,0,0,0-1.762-4.22A10.1,10.1,0,0,0-1279.771,3018.629Z" transform="translate(1327.51 -3018.628)" fill="url(#linear-gradient)"/>
        <g id="Сгруппировать_73459" data-name="Сгруппировать 73459">
          <g id="Сгруппировать_73458" data-name="Сгруппировать 73458" clip-path="url(#clip-path-10)">
            <path id="Контур_34240" data-name="Контур 34240" d="M-1347.584,3082.57c.033-8.756,11.616-11.9,16.8-14.121s2.727-9.978,3.706-13.312,7.995-6.806,13.184-9.025,16.509-10.422,10.2.544-4.968,34.167-20.784,47.332S-1347.641,3097.912-1347.584,3082.57Z" transform="translate(1343.003 -3033.209)" fill="#cec9b7" style="mix-blend-mode: multiply;isolation: isolate"/>
          </g>
        </g>
      </g>
      <g id="Сгруппировать_73462" data-name="Сгруппировать 73462" transform="translate(34.961 20.332)">
        <g id="Сгруппировать_73461" data-name="Сгруппировать 73461" clip-path="url(#clip-path-11)">
          <path id="Контур_34242" data-name="Контур 34242" d="M-1584.534,2729.72c-1.974,3.1,5.789,6.055,11.5,6.767a99.286,99.286,0,0,0,13.9.465c2.424-.053,4.866,1.471,2.135,2.876a18.364,18.364,0,0,1-8.017,1.732c-5.738.1-8.459-1-13.844-2.494C-1586.938,2736.832-1591.1,2733.907-1584.534,2729.72Z" transform="translate(1586.036 -2713.626)" fill="#662429"/>
        </g>
      </g>
      <path id="Контур_34244" data-name="Контур 34244" d="M-1573.5,2730.208a24.27,24.27,0,0,0-5.1-.716,6.8,6.8,0,0,0-2.518.338,2.35,2.35,0,0,0-1.585,1.813l-.089-.015a2.517,2.517,0,0,1,.272-1.425,3.1,3.1,0,0,1,1.142-1.023,6.568,6.568,0,0,1,2.789-.589,12.839,12.839,0,0,1,2.664.428,9.939,9.939,0,0,1,2.445,1.1Z" transform="translate(1617.761 -2692.559)" fill="#662429"/>
      <path id="Контур_34245" data-name="Контур 34245" d="M-1511.568,2730.812a2.465,2.465,0,0,1,1.13-.8,3.846,3.846,0,0,1,1.335-.151,3.588,3.588,0,0,1,1.288.5,1.718,1.718,0,0,1,.77,1.224l-.072.055a3.224,3.224,0,0,0-2.1-.886,6.121,6.121,0,0,0-2.332.139Z" transform="translate(1571.498 -2693.387)" fill="#171329"/>
      <path id="Контур_34246" data-name="Контур 34246" d="M-1582.936,2737.27a2.8,2.8,0,0,0,1.522,3.019,14.106,14.106,0,0,0,3.452,1.237,60.717,60.717,0,0,0,7.191,1.64,61.053,61.053,0,0,0,14.721.324l.008.09a44.032,44.032,0,0,1-7.391.894,43.433,43.433,0,0,1-7.478-.417,50.694,50.694,0,0,1-7.232-1.852,14.547,14.547,0,0,1-3.515-1.507,3.09,3.09,0,0,1-1.367-3.443Z" transform="translate(1617.993 -2698.187)" fill="#171329"/>
      <path id="Контур_34247" data-name="Контур 34247" d="M-1355.581,2877.6a2.449,2.449,0,0,1-.266-1.948,4.643,4.643,0,0,1,.969-1.718,6.482,6.482,0,0,1,1.524-1.083,4.873,4.873,0,0,1,1.8-.466l.046.078a12.409,12.409,0,0,0-2.714,2.091,3.845,3.845,0,0,0-1.269,3.038Z" transform="translate(1470.418 -2785.955)" fill="#171329"/>
      <path id="Контур_34248" data-name="Контур 34248" d="M-1420.208,2875.542a9.611,9.611,0,0,1-6.754-4.813,25.056,25.056,0,0,1-2.585-8.052,25.573,25.573,0,0,1,.235-8.435,20.656,20.656,0,0,1,1.356-4.011,5.634,5.634,0,0,1,3.026-2.892l.041.08a5.346,5.346,0,0,0-2.63,3,20.577,20.577,0,0,0-1.1,3.949,26.575,26.575,0,0,0-.032,8.186,26.013,26.013,0,0,0,2.313,7.848,9.9,9.9,0,0,0,6.149,5.053Z" transform="translate(1518.379 -2769.685)" fill="#171329"/>
      <path id="Контур_34249" data-name="Контур 34249" d="M-1551.99,3049.03a26.946,26.946,0,0,1-8.786,2.174,17.44,17.44,0,0,1-10.28-1.915C-1571.262,3056.569-1560.937,3056.915-1551.99,3049.03Z" transform="translate(1610.137 -2900.681)" fill="#171329"/>
      <path id="Контур_34250" data-name="Контур 34250" d="M-1361.788,2988.555a31.593,31.593,0,0,1,8.185-8.1,19.732,19.732,0,0,1,5.238-2.564,7.554,7.554,0,0,1,2.948-.287,3.3,3.3,0,0,1,2.364,1.614c-1.264-1.63-3.432-1.272-5.1-.663a21.786,21.786,0,0,0-4.944,2.65,42.734,42.734,0,0,0-4.509,3.443C-1359.041,2985.891-1360.441,2987.185-1361.788,2988.555Z" transform="translate(1474.217 -2854.257)" fill="#171329"/>
      <path id="Контур_34251" data-name="Контур 34251" d="M-1317.958,3060.249a24.562,24.562,0,0,0-1.37,5.035c-.345,1.7-.6,3.424-.813,5.154l-.668,5.206a11.647,11.647,0,0,1-.547,2.75,8.288,8.288,0,0,1-1.551,2.439c-2.559,2.7-5.9,4.323-8.6,6.187a7.865,7.865,0,0,0-2.442,4.175,10.427,10.427,0,0,0-.2,5.1l-.086.028c-.933-3.34-.334-7.344,2.258-9.829,2.813-2.1,6.028-3.668,8.4-6.268a7.493,7.493,0,0,0,1.42-2.159,11.136,11.136,0,0,0,.534-2.546l.788-5.2a37.323,37.323,0,0,1,2.8-10.116Z" transform="translate(1456.588 -2907.941)" fill="#171329"/>
      <path id="Контур_34252" data-name="Контур 34252" d="M-1623.788,3202.979a28.012,28.012,0,0,0,3.861,3.579,41.387,41.387,0,0,0,4.245,3.031,21.147,21.147,0,0,0,4.52,2.414c1.521.589,3.365.882,4.514-.605l.081.041c-.887,1.751-3.177,1.8-4.792,1.237a19.117,19.117,0,0,1-4.81-2.327,33.044,33.044,0,0,1-4.23-3.27,18.514,18.514,0,0,1-3.467-4.057Z" transform="translate(1644.434 -3000.669)" fill="#171329"/>
    </g>
    <path id="Контур_34518" data-name="Контур 34518" d="M-4488.86,730.625l-43.825-37.094-77.5-65.6h0l-79.336-67.152-54.868-46.442h0l-64.656-54.728h0l-18.1-15.32c-13.347-11.314-34.379-3.481-36.556,14.215l-8.162,57.99-54.454,388.674,0-.008-18.039,128.619c-2.612,19.585,19.729,32.2,35.252,20.889l22.348-15.263h0l227.521-155.593,103.851-70.99,59.559-40.714C-4478.85,760.507-4475.659,741.8-4488.86,730.625Z" transform="translate(5256.852 3095.991)" fill="#17a44e" fill-rule="evenodd"/>
    <text id="_1" data-name="1" transform="translate(496 3822)" fill="#161636" font-size="320" font-family="ExoSoft-BoldItalic, ExoSoft-BoldItalic ☞" font-weight="700" font-style="italic" letter-spacing="0.03em"><tspan x="-137.28" y="0">1</tspan></text>
    <text id="Шаг" transform="translate(584 3795)" fill="#fff" font-size="72" font-family="ExoSoft-BoldItalic, ExoSoft-BoldItalic ☞" font-weight="700" font-style="italic" letter-spacing="0.03em"><tspan x="-158.544" y="0">ШАГ</tspan></text>
    <path id="Контур_34523" data-name="Контур 34523" d="M72.347,7.42C48.976,24.689,52.9,59.694,60.075,80.339,23.182,65.806,16.05,112.051,28.457,130.768c-10.958,1.331-18.382,6.18-14.4,17.089,2.36,6.462-5.668,28.463-13.6,43.867-.945,1.833-.293,1.491.8-.359a637.063,637.063,0,0,1,57.192-82.1c25.711-31.107,51.4-48.925,73.874-62.115C119.694,2.473,95.5-9.686,72.347,7.42Z" transform="translate(536.934 3437.265) rotate(41)" fill="#fff" opacity="0.696"/>
    <path id="Контур_34525" data-name="Контур 34525" d="M-2625.319,2135.436c-2.834-.836-5.272-.828-6.082,2.157-4.85-6.091-11.49-9.887-16.669-2.533-.021-.51-.979-1.758-1.007-2.192-.395-6.208-3.549-13.473-11.126-13.358-9.967.15-11.953,8.759-16.514,12.246-3.681-9.951-13.94-3.076-19.685,1.661-.141-3.164-3.83-1.572-6-.5a51.985,51.985,0,0,1-8.378,2.845c15.205-2.109,30.809.97,46.007,2.654,18.44,2.043,31.292,1.538,48.761-3.468C-2618.958,2135.412-2622.484,2136.273-2625.319,2135.436Z" transform="translate(3252.811 1454.689)" fill="#fff"/>
  </g>
</svg>
