<svg xmlns="http://www.w3.org/2000/svg" xmlns:xlink="http://www.w3.org/1999/xlink" width="494.303" height="679.83" viewBox="0 0 494.303 679.83">
  <defs>
    <linearGradient id="linear-gradient" x1="1.335" y1="-9.06" x2="2.167" y2="-8.548" gradientUnits="objectBoundingBox">
      <stop offset="0" stop-color="#ffc965"/>
      <stop offset="0.192" stop-color="#ffc760"/>
      <stop offset="0.395" stop-color="#ffc253"/>
      <stop offset="0.604" stop-color="#ffbb3e"/>
      <stop offset="0.815" stop-color="#ffb021"/>
      <stop offset="1" stop-color="#ffa501"/>
    </linearGradient>
    <clipPath id="clip-path">
      <path id="Контур_34256" data-name="Контур 34256" d="M-2298.07,2418.67a9.6,9.6,0,0,0-8.9-3.805c-4.65.74-4.938,5.877-5.053,8.748s-2.814,3.64-4.323,2.164-3.079-3.985-7.291-3.757a6.691,6.691,0,0,0-6.485,6.862c.121,2.34.3,6.1-1.835,6.121s-3.306-2.325-1.4-3.839c-2.364,1.257-2.209,4.418.488,5.538,3,1.246,6.724-.009,7.831-2.268,1.3-2.646,3.829-3.472,6.381-1.35,3.311,2.752,7.584,3.557,11.537.643,6.617-4.876.613-17.244,6.56-14.932C-2297.031,2420.17-2293.791,2424.413-2298.07,2418.67Z" transform="translate(2335.021 -2414.759)" fill="url(#linear-gradient)"/>
    </clipPath>
    <linearGradient id="linear-gradient-3" x1="1.711" y1="1.233" x2="2.602" y2="1.762" gradientUnits="objectBoundingBox">
      <stop offset="0.344" stop-color="#ffa501"/>
      <stop offset="0.547" stop-color="#f9a101"/>
      <stop offset="0.802" stop-color="#ea9601"/>
      <stop offset="1" stop-color="#d98b01"/>
    </linearGradient>
    <linearGradient id="linear-gradient-4" x1="4.92" y1="1.437" x2="4.542" y2="2.404" xlink:href="#linear-gradient"/>
    <clipPath id="clip-path-2">
      <path id="Контур_34263" data-name="Контур 34263" d="M-2111.878,2446.113c-4.568-8.6-15.386-10.842-19.821-9.2s-6.906,8.187-5.147,10.891a5.711,5.711,0,0,0,.754.938,2.307,2.307,0,0,0-1.512,1.683c-.341,1.176.615,2.6,2.342,3.778,1.1,1.09,2.552,1.99,3.846,3.208a12.512,12.512,0,0,0,7.193,3.614,6.227,6.227,0,0,0,1.511.013,13.411,13.411,0,0,1,4.033,7.007,50.823,50.823,0,0,1-5.562-.672,77.984,77.984,0,0,1-15.867-4.868c-5.438-2.347-7.812-5.4-11.779-4.224-2.687.8-2.083,7.437,9.412,11.8,5.621,2.136,17.044,4.152,24.263,4.575a11.477,11.477,0,0,0,2.928-.152c3.034.547,5.1-1.791,5.846-5.759C-2108.614,2464.366-2107.311,2454.71-2111.878,2446.113Z" transform="translate(2153.213 -2436.413)" fill="none"/>
    </clipPath>
    <clipPath id="clip-path-3">
      <path id="Контур_34272" data-name="Контур 34272" d="M-2466.586,2875.316c-7.173,14.005-18.64,42.462-20.758,47.067s-21.685,28.753-31.729,47.188a236.59,236.59,0,0,1-23.6,34.5l-22.448,12.087s13.648-43.937,32.815-65.969,29.122-26.725,30.9-34.521,7.117-37.754,13.68-49.339S-2457.676,2857.918-2466.586,2875.316Z" transform="translate(2565.122 -2859.475)" fill="#ff3736"/>
    </clipPath>
    <linearGradient id="linear-gradient-5" x1="2.317" y1="1.151" x2="3.025" y2="0.821" gradientUnits="objectBoundingBox">
      <stop offset="0.018" stop-color="#f6f3e7"/>
      <stop offset="0.258" stop-color="#f2efe3"/>
      <stop offset="0.47" stop-color="#e7e5d9"/>
      <stop offset="0.672" stop-color="#d5d3c9"/>
      <stop offset="0.866" stop-color="#bcbab2"/>
      <stop offset="0.995" stop-color="#a7a69f"/>
    </linearGradient>
    <linearGradient id="linear-gradient-6" x1="6.129" y1="1.028" x2="6.978" y2="1.172" gradientUnits="objectBoundingBox">
      <stop offset="0" stop-color="#6b6a66"/>
      <stop offset="1" stop-color="#a7a69f"/>
    </linearGradient>
    <clipPath id="clip-path-4">
      <path id="Контур_34279" data-name="Контур 34279" d="M-2259.665,2514.825a6.536,6.536,0,0,1,5.79-3.578c5.036-.147,8.44.548,12.091,3.819,5.533,4.958,5.715,8.967,5.415,12.767-.414,5.258-8.859,9.811-8.354,18.166.627,10.361,12.08,16.263,12.08,16.263a106.912,106.912,0,0,0-20.006,2.015c-10.962,2.156-16.264,7.116-18.9,18.564-10.031-9.241,3.769-18.191,6.833-32.782C-2262.813,2540.978-2263.958,2523.941-2259.665,2514.825Z" transform="translate(2275.151 -2511.229)" fill="#4b64ac"/>
    </clipPath>
    <clipPath id="clip-path-5">
      <path id="Контур_34282" data-name="Контур 34282" d="M-2148.129,2698.339c7.861-1.534,24.37-4.007,31.62-5.142s15.352-1.8,20.353.709,4.109,10.489,2.092,22.914c-2,12.31-5.974,45.789,4.1,67.86-8.145,7.535-19.984,27.2-23,32.414-4.243-23.945-6.955-40.25-4.411-63.7s7.107-36.036,7.573-40.17-1.63-2.965-4.6-2.118-28.83,9.421-36.668,12.009S-2169,2702.41-2148.129,2698.339Z" transform="translate(2160.531 -2692.185)" fill="none"/>
    </clipPath>
    <clipPath id="clip-path-6">
      <path id="Контур_34290" data-name="Контур 34290" d="M-2153.727,2467.33c-.226.24-1.466.153-2.769-.156-.789-.187-1.127-.26-1.578-.375-.482-.123-.594.381-.458,1.1a3.181,3.181,0,0,0,1.385,2.379,4.481,4.481,0,0,0,2.308.419c.277-.044.339-.578.458-1.1A22.265,22.265,0,0,1-2153.727,2467.33Z" transform="translate(2158.585 -2466.781)" fill="#c30114"/>
    </clipPath>
    <linearGradient id="linear-gradient-7" x1="1.881" y1="0.598" x2="2.743" y2="0.598" xlink:href="#linear-gradient-6"/>
    <linearGradient id="linear-gradient-8" x1="2.433" y1="0.129" x2="1.873" y2="1.282" gradientUnits="objectBoundingBox">
      <stop offset="0.018" stop-color="#f6f3e7"/>
      <stop offset="0.61" stop-color="#a7a69f"/>
    </linearGradient>
    <clipPath id="clip-path-7">
      <path id="Контур_34303" data-name="Контур 34303" d="M-2361.965,2511.719a3.244,3.244,0,0,0-2.8.707c-10.334-.937-19.77.445-24.451,1.054a2.611,2.611,0,0,0-.836.254c-9.114,4.546-17.73,12.064-21.531,25.207-3.383,2.061-4.989,4.285-5.659,7.839a3.241,3.241,0,0,0,2.167,3.849c.151,4.173,3.589,2.944,3.589,2.944a3.7,3.7,0,0,0,5.015,2.431c3.287,2.887,4.521.071,5.34-2.2,1.113,1.148,3.936.9,5.218-1.753a10.214,10.214,0,0,0-.336-10.068c-.052-.08-.108-.134-.16-.212.527-10.267,5.115-15,7.58-18.1a11.017,11.017,0,0,0,2.448-4.83s11.286.737,17.961,1.176a53.6,53.6,0,0,0-1.033,5.583c4.145,5.339,8.758-.2,10.514-7.983C-2358.249,2514.575-2359.455,2512.248-2361.965,2511.719Z" transform="translate(2417.303 -2511.643)" fill="none"/>
    </clipPath>
  </defs>
  <g id="Сгруппировать_73596" data-name="Сгруппировать 73596" transform="translate(-796.145 -3474.103)">
    <path id="Контур_34526" data-name="Контур 34526" d="M-2665.388,1709.783c-7.27-4.526-17.742-11.779-21.751-2.831-8.871-22.094-23.55-37.658-38.731-16.92.14-1.534-1.543-5.761-1.45-7.09,1.389-19.714-3.276-45.21-20.437-46.711-20.684-1.813-25.471,23.991-33.942,32.356-6.072-29.8-23.139-12.807-31.56-2.075-.494-8.207-5.74-5.151-8.7-3.081-2.887,2.018-7.643,3.605-10.975,4.475,20.927-.535,44.65,14.735,72.134,23.734,39.089,12.8,77.833,23.371,123.071,33.753C-2646.878,1723.294-2657.969,1714.4-2665.388,1709.783Z" transform="matrix(0.985, -0.174, 0.174, 0.985, 3459.675, 1404.782)" fill="#fff" opacity="0.699"/>
    <g id="Сгруппировать_73528" data-name="Сгруппировать 73528" transform="matrix(0.966, -0.259, 0.259, 0.966, 1039.04, 3524.831)">
      <g id="Сгруппировать_73465" data-name="Сгруппировать 73465" transform="translate(56.763)">
        <path id="Контур_34254" data-name="Контур 34254" d="M-2298.07,2418.67a9.6,9.6,0,0,0-8.9-3.805c-4.65.74-4.938,5.877-5.053,8.748s-2.814,3.64-4.323,2.164-3.079-3.985-7.291-3.757a6.691,6.691,0,0,0-6.485,6.862c.121,2.34.3,6.1-1.835,6.121s-3.306-2.325-1.4-3.839c-2.364,1.257-2.209,4.418.488,5.538,3,1.246,6.724-.009,7.831-2.268,1.3-2.646,3.829-3.472,6.381-1.35,3.311,2.752,7.584,3.557,11.537.643,6.617-4.876.613-17.244,6.56-14.932C-2297.031,2420.17-2293.791,2424.413-2298.07,2418.67Z" transform="translate(2335.021 -2414.759)" fill="url(#linear-gradient)"/>
        <g id="Сгруппировать_73464" data-name="Сгруппировать 73464" clip-path="url(#clip-path)">
          <path id="Контур_34255" data-name="Контур 34255" d="M-2348.63,2439.038a2.03,2.03,0,0,0-.526.272c-1.535,1.108-1.114,4.177,1.81,4.651,3.22.522,4.6-2.282,5.271-5.389s3.826-4.044,8.98-.69,11.1,1.583,11-6.009,5.225-7.631,8.749-5.329c2.2,1.436,2.782,17.289-11.662,20.778s-22.942,4.78-28.247-1.836,1.078-9.328,3.852-9.145S-2347.993,2438.818-2348.63,2439.038Z" transform="translate(2350.292 -2422.632)" fill="url(#linear-gradient-3)"/>
        </g>
      </g>
      <path id="Контур_34257" data-name="Контур 34257" d="M-2184.936,2423.442a7.05,7.05,0,0,0-4.716-5.226c-3.492-1.339-9.821-1.171-11.3,4.849a13.832,13.832,0,0,0,1.708,10.548S-2187.832,2431.572-2184.936,2423.442Z" transform="translate(2291.079 -2416.85)" fill="url(#linear-gradient-4)"/>
      <g id="Сгруппировать_73468" data-name="Сгруппировать 73468" transform="translate(101.612 5.342)">
        <path id="Контур_34258" data-name="Контур 34258" d="M-2081.6,2488.563c-1.748-1.671-5.969.045-4.651,2.793.961,2,3.21,3.074,5.089,4.842a12.509,12.509,0,0,0,7.193,3.614c2.089.241,4.2-.149,4.808-4.469S-2081.6,2488.563-2081.6,2488.563Z" transform="translate(2102.96 -2475.202)" fill="#ff3736"/>
        <path id="Контур_34259" data-name="Контур 34259" d="M-2140.11,2528.479a78.029,78.029,0,0,0,15.867,4.868c5.235.987,8.584.367,10.27,1.936s2.977,5.774-4.241,5.352-18.642-2.437-24.263-4.574c-11.494-4.369-12.1-11.006-9.412-11.8C-2147.922,2523.075-2145.548,2526.132-2140.11,2528.479Z" transform="translate(2153.213 -2502.389)" fill="#ff3736"/>
        <path id="Контур_34260" data-name="Контур 34260" d="M-2074.932,2460.591c6.976,6.215,3.337,12.387,6.91,13.68s5.99-1.14,6.817-5.522,2.13-14.038-2.437-22.635-15.387-10.843-19.821-9.2-6.907,8.187-5.147,10.891,3.137,1.417,3.137,1.417-.9,3.131,2.9,3.745c-.1,2.148,3.129,2.549,3.129,2.549S-2082.214,2458.188-2074.932,2460.591Z" transform="translate(2104.977 -2436.413)" fill="#ff3736"/>
        <path id="Контур_34261" data-name="Контур 34261" d="M-2090.152,2487.662c.758-2.622,3.745-2.446,6.72.8s2.7,5.736-1.023,4.57S-2090.675,2489.469-2090.152,2487.662Z" transform="translate(2105.76 -2473.652)" fill="#ff3736"/>
        <g id="Сгруппировать_73467" data-name="Сгруппировать 73467">
          <g id="Сгруппировать_73466" data-name="Сгруппировать 73466" clip-path="url(#clip-path-2)">
            <path id="Контур_34262" data-name="Контур 34262" d="M-2103.659,2492.14c.311-3.293-1.994-13.844-2.954-12.779a2.179,2.179,0,0,1-2.3-.124c-1.1-.938-.917-2.726-2.154-3.345-2.474-1.24-3.873,1.667-5.5,1.671s-2.082-.856-2.234-2.51a4.59,4.59,0,0,1-2.868-4.486,3.1,3.1,0,0,1-3.607-2.614c-1.873.5-3.342-1.558-3.864-2.894s-2.145,1.53-2.325,4.126,1.808,8.463,6.279,11.008c4.077,2.32,8.038,4.209,11.955,4.085a17.023,17.023,0,0,1,2.463,4.783c.421,1.665.77,2.891-.211,3.171-1.376.391-17.541,1.035-23.557-3.163-4.318-3.013-6.149-6.528-4.935-7.227-5.271-.762-2.483,5.705-.349,9.976s21.582,5.917,31.044,5.548A5.382,5.382,0,0,0-2103.659,2492.14Z" transform="translate(2145.134 -2457.737)" fill="#c30114" opacity="0.5"/>
          </g>
        </g>
        <path id="Контур_34264" data-name="Контур 34264" d="M-2014.508,2563.506a20.16,20.16,0,0,0,.721,2.711,8.883,8.883,0,0,0,1.137,2.54l-.073.059a2.715,2.715,0,0,1-1.257-.987,6.633,6.633,0,0,1-.7-1.323,7.354,7.354,0,0,1-.226-1.455,3.55,3.55,0,0,1,.3-1.53Z" transform="translate(2049.022 -2532.154)" fill="#171329"/>
        <path id="Контур_34265" data-name="Контур 34265" d="M-2067.4,2455.093a5.386,5.386,0,0,0-2.151,1.283,8.126,8.126,0,0,0-1.506,1.875,12.888,12.888,0,0,0-1.227,2.171,26.172,26.172,0,0,0-1.014,2.457h-.094a9.726,9.726,0,0,1,1.552-5.14c.972-1.481,2.557-2.846,4.445-2.739Z" transform="translate(2093.086 -2450.41)" fill="#171329"/>
        <path id="Контур_34266" data-name="Контур 34266" d="M-2054.124,2514.1a4.9,4.9,0,0,0,1.554.563" transform="translate(2078.568 -2494.938)" fill="none" stroke="#171329" stroke-miterlimit="10" stroke-width="2.465"/>
        <path id="Контур_34267" data-name="Контур 34267" d="M-2053.524,2470.777a12.688,12.688,0,0,0-2.1,1.148,7.891,7.891,0,0,0-1.643,1.464,11.487,11.487,0,0,0-1.436,1.712,23.082,23.082,0,0,0-1.152,2.129l-.094-.009a7.82,7.82,0,0,1,.583-2.418,8.464,8.464,0,0,1,1.417-2.054,6.338,6.338,0,0,1,4.421-2.066Z" transform="translate(2082.957 -2462.229)" fill="#171329"/>
        <path id="Контур_34268" data-name="Контур 34268" d="M-2043.445,2491.284a4.736,4.736,0,0,0-2.7,1.534,9.312,9.312,0,0,0-1.943,2.423,3.175,3.175,0,0,0-.506,2.517c.222.737,1.01,1.13,1.934,1.361a8.684,8.684,0,0,0,2.992.146c.97-.017,1.959-.716,1.686-.679a1.281,1.281,0,0,0-.417-.377l-.15-.09c-.01.036-.429-.287-.38-.542a.632.632,0,0,1,.334-.6.623.623,0,0,1,.375-.068l.077.019.134.038a1.239,1.239,0,0,1,.255.093,4.215,4.215,0,0,1,1.4,1.173,3.771,3.771,0,0,0,2.576,1.682l.006.094a3.829,3.829,0,0,1-2.9-1.444,4.4,4.4,0,0,0-1.3-.966,1.57,1.57,0,0,0-.343-.091c-.073.027.061.062.2.139a2.039,2.039,0,0,1,.673.518.772.772,0,0,1,.1.846,1.584,1.584,0,0,1-.622.589,4.368,4.368,0,0,1-1.6.5,9.554,9.554,0,0,1-3.32-.075,3.21,3.21,0,0,1-2.543-2,3.786,3.786,0,0,1,.7-3.183,9.968,9.968,0,0,1,2.258-2.423,4.647,4.647,0,0,1,3.029-1.228Z" transform="translate(2075.121 -2477.671)" fill="#171329"/>
        <path id="Контур_34269" data-name="Контур 34269" d="M-2083.568,2485.373a4.449,4.449,0,0,1,3.661.409,9.97,9.97,0,0,1,2.823,2.429,9.928,9.928,0,0,1,.978,1.637,3.324,3.324,0,0,1,.332,2.137,1.671,1.671,0,0,1-.833,1.047,2.087,2.087,0,0,1-1.106.192,4.667,4.667,0,0,1-1.744-.679l.028-.09a5.817,5.817,0,0,0,1.7.275,1.171,1.171,0,0,0,1.242-.875,4.79,4.79,0,0,0-1.332-3.068,10.7,10.7,0,0,0-2.483-2.394,5,5,0,0,0-3.251-.927Z" transform="translate(2100.749 -2473.115)" fill="#171329"/>
      </g>
      <g id="Сгруппировать_73470" data-name="Сгруппировать 73470" transform="translate(0 109.705)">
        <path id="Контур_34270" data-name="Контур 34270" d="M-2466.586,2875.316c-7.173,14.005-18.64,42.462-20.758,47.067s-21.685,28.753-31.729,47.188a236.59,236.59,0,0,1-23.6,34.5l-22.448,12.087s13.648-43.937,32.815-65.969,29.122-26.725,30.9-34.521,7.117-37.754,13.68-49.339S-2457.676,2857.918-2466.586,2875.316Z" transform="translate(2565.122 -2859.475)" fill="#ff3736"/>
        <g id="Сгруппировать_73469" data-name="Сгруппировать 73469" clip-path="url(#clip-path-3)">
          <path id="Контур_34271" data-name="Контур 34271" d="M-2543.546,3201.577c-.155,4.141,11.8,18.7,15.884,13.629l-33.1,52s-26.183,10.413-25.409,9.621S-2568.309,3219.01-2543.546,3201.577Z" transform="translate(2580.993 -3117.185)" fill="#f6f3e7"/>
        </g>
      </g>
      <path id="Контур_34273" data-name="Контур 34273" d="M-2261.715,2767.182c-1.454,4.729-4.356,14.817-5.758,18.931s3.768,8.217,11.2,10.244,13.762,1.656,15.881-2.948,6.682-17.194,10.373-26.819-1.245-19.939-14.272-20.518S-2259.529,2760.077-2261.715,2767.182Z" transform="translate(2341.072 -2664.329)" fill="url(#linear-gradient-5)"/>
      <path id="Контур_34274" data-name="Контур 34274" d="M-2110.151,2740.559c4.649-1.719,4.643-8.038,4.086-17.527s-2.909-14.153-5.518-13.864c-6.943,1.715-9.281,11.074-9.431,19.333S-2116.035,2742.734-2110.151,2740.559Z" transform="translate(2230.572 -2636.532)" fill="url(#linear-gradient-6)"/>
      <path id="Контур_34275" data-name="Контур 34275" d="M-2180.663,2432.152a3.485,3.485,0,0,0-.461-.915.641.641,0,0,0-.945-.146c-.714-1.085-2.388-1.667-3.735-1.885a4.952,4.952,0,0,0-4.544,1.1,8.6,8.6,0,0,0-1.665,4.409,12.5,12.5,0,0,1-.525,2.573,21.4,21.4,0,0,1-1.133-1.869c-.634-1.087-2.142-.248-1.984,1.815a4,4,0,0,0,2.008,2.922,12.607,12.607,0,0,1-1.32,2.163,16.153,16.153,0,0,1,.831,3.45,6.847,6.847,0,0,1-1.515,4.719l6.649,1.253a23.9,23.9,0,0,1,2.745-4.213c1.5-1.51,3.9-3.141,4.749-5.282C-2179.854,2438.095-2179.81,2434.1-2180.663,2432.152Z" transform="translate(2286.805 -2425.56)" fill="#ff3736"/>
      <path id="Контур_34276" data-name="Контур 34276" d="M-2158.809,2442.8a7.249,7.249,0,0,0,1.593,4.465,5.029,5.029,0,0,1-1.725.316c-.022-.9-.093-1.717-.073-2.673-.264-.226-3.673.5-4.72-3C-2162.166,2440.213-2159.187,2442.558-2158.809,2442.8Z" transform="translate(2262.751 -2434.75)" fill="#c30114"/>
      <g id="Сгруппировать_73472" data-name="Сгруппировать 73472" transform="translate(71.532 23.798)">
        <path id="Контур_34277" data-name="Контур 34277" d="M-2259.665,2514.825a6.536,6.536,0,0,1,5.79-3.578c5.036-.147,8.44.548,12.091,3.819,5.533,4.958,5.715,8.967,5.415,12.767-.414,5.258-8.859,9.811-8.354,18.166.627,10.361,12.08,16.263,12.08,16.263a106.912,106.912,0,0,0-20.006,2.015c-10.962,2.156-16.264,7.116-18.9,18.564-10.031-9.241,3.769-18.191,6.833-32.782C-2262.813,2540.978-2263.958,2523.941-2259.665,2514.825Z" transform="translate(2275.151 -2511.229)" fill="#4b64ac"/>
        <g id="Сгруппировать_73471" data-name="Сгруппировать 73471" clip-path="url(#clip-path-4)">
          <path id="Контур_34278" data-name="Контур 34278" d="M-2225.434,2528.067c2.213,4.5,4.187,11.961-2.847,18.578-1.151-.217-11.888.765-13.669.883-13.572,10.6-8.448,23.143-3.088,33.23-22.325,10.088-10.208-40.1-8.722-45.214,1.911-2.1,15.952-9.441,20.791-9.809C-2227.466,2525.315-2226.479,2527.016-2225.434,2528.067Z" transform="translate(2262.511 -2522.107)" fill="#314781"/>
        </g>
      </g>
      <path id="Контур_34280" data-name="Контур 34280" d="M-2148.129,2698.339c7.861-1.534,24.37-4.007,31.62-5.142s15.352-1.8,20.353.709,4.116,10.122,2.092,22.914c-1.95,12.318-5.974,45.789,4.1,67.86-8.145,7.535-19.984,27.2-23,32.414-4.243-23.945-6.955-40.25-4.411-63.7s7.107-36.036,7.573-40.17-1.63-2.965-4.6-2.118-28.83,9.421-36.668,12.009S-2169,2702.41-2148.129,2698.339Z" transform="translate(2260.338 -2623.748)" fill="#ff3736"/>
      <g id="Сгруппировать_73474" data-name="Сгруппировать 73474" transform="translate(99.807 68.437)">
        <g id="Сгруппировать_73473" data-name="Сгруппировать 73473" clip-path="url(#clip-path-5)">
          <path id="Контур_34281" data-name="Контур 34281" d="M-2009.2,2935.261c7.323-10.087,26.623-20.106,25.781-9.005l10.989,50.654-31.683,40.316S-2015.834,2964.349-2009.2,2935.261Z" transform="translate(2048.065 -2864.851)" fill="#f6f3e7"/>
        </g>
      </g>
      <path id="Контур_34283" data-name="Контур 34283" d="M-2261.152,2727.355c-.456,5.368.368,13.331,6.487,17.017,6.928,4.174,17.79,3.3,24.94,1.261a111.715,111.715,0,0,0,13.929-5.036,10.911,10.911,0,0,1-6.441-7.313,30.579,30.579,0,0,1,.226-17.785c1.666-4.691,3.1-5.671,4.782-6.292-10.045,1.859-21.574,3.282-30.77,5.615C-2257.27,2717.173-2260.725,2722.328-2261.152,2727.355Z" transform="translate(2336.216 -2636.571)" fill="#f6f3e7"/>
      <path id="Контур_34284" data-name="Контур 34284" d="M-2234.582,2851.595a27.527,27.527,0,0,0,6.069,1.667,36.217,36.217,0,0,0,6.219.487,54.706,54.706,0,0,0,6.279-.215c2.1-.157,4.2-.423,6.336-.683l.025.09a45.8,45.8,0,0,1-12.653,1.743,24.893,24.893,0,0,1-12.323-3.009Z" transform="translate(2316.158 -2743.833)" fill="#171329"/>
      <path id="Контур_34285" data-name="Контур 34285" d="M-2163.78,2441.709a1.662,1.662,0,0,1,1.662-.805,9.24,9.24,0,0,1,2.633.868l-.185.271a11.992,11.992,0,0,0-2.482-.893A1.736,1.736,0,0,0-2163.78,2441.709Z" transform="translate(2262.786 -2434.452)" fill="#ffc965"/>
      <path id="Контур_34286" data-name="Контур 34286" d="M-2138.593,2446.821c.767-.16,1.141.045,1.242.338a1.343,1.343,0,0,1,.024.638s.093-.664-.351-.772a1.414,1.414,0,0,0-.945.127Z" transform="translate(2243.835 -2438.87)" fill="#ffc965"/>
      <g id="Сгруппировать_73476" data-name="Сгруппировать 73476" transform="translate(100.287 12.833)">
        <path id="Контур_34287" data-name="Контур 34287" d="M-2153.727,2467.33c-.226.24-1.466.153-2.769-.156-.789-.187-1.127-.26-1.578-.375-.482-.123-.594.381-.458,1.1a3.181,3.181,0,0,0,1.385,2.379,4.481,4.481,0,0,0,2.308.419c.277-.044.339-.578.458-1.1A22.265,22.265,0,0,1-2153.727,2467.33Z" transform="translate(2158.585 -2466.781)" fill="#c30114"/>
        <g id="Сгруппировать_73475" data-name="Сгруппировать 73475" clip-path="url(#clip-path-6)">
          <path id="Контур_34288" data-name="Контур 34288" d="M-2165.112,2468.83a9.025,9.025,0,0,1,4.121.1c1.469.414,1.592,1.225,1.592,1.225l1.155-3.021-6.686-1.006Z" transform="translate(2163.502 -2466.29)" fill="#171329"/>
          <path id="Контур_34289" data-name="Контур 34289" d="M-2159.119,2464.934c.073.425.415.617,1.59.863a14.9,14.9,0,0,0,2.444.274s-.35.232-.242.455c.121.25.53.287.969.094s1.1-1.261.472-1.4S-2159.945,2463.2-2159.119,2464.934Z" transform="translate(2159.052 -2464.84)" fill="#fff"/>
        </g>
      </g>
      <path id="Контур_34291" data-name="Контур 34291" d="M-1911.95,3040.78c-7.907.168-20.446,4.486-31.248,19.756-12.435,17.578-15.458,24.332-13.767,27.41,3.375,2.317,8.017,1.567,11.64-1.747,3.779-3.458,11.272-12.705,15.069-14.674,8.55-4.435,8.772-.965,16.141-4.88,6.218-3.3,11.265-10.946,12.611-17.32C-1900.79,3043.494-1904.38,3040.62-1911.95,3040.78Z" transform="translate(2107.314 -2886.344)" fill="url(#linear-gradient-7)"/>
      <path id="Контур_34292" data-name="Контур 34292" d="M-1916.386,3024.141a25.863,25.863,0,0,0-11.355.469c-6.43,1.549-14.127,5.259-25.169,20.693-7.038,9.837-13.375,19.011-13.823,24.987.7,2.035,1.423,3.738,2.051,4.279a8.076,8.076,0,0,0,.684.526c-1.691-3.078,1.332-9.832,13.767-27.409,10.8-15.27,23.34-19.589,31.248-19.756,7.57-.16,11.16,2.715,10.445,8.545.66-3.128.443-5.955-.993-7.8A14.992,14.992,0,0,0-1916.386,3024.141Z" transform="translate(2114.348 -2873.492)" fill="url(#linear-gradient-8)"/>
      <path id="Контур_34293" data-name="Контур 34293" d="M-1961.307,3044.867c11.041-15.433,18.739-19.143,25.169-20.693a25.882,25.882,0,0,1,11.356-.469c-2.2-.767-6.29-.608-9-.39-6.986.56-15.335,5.834-18.263,5.627-6.636-.469-11.168,8.375-14.014,14.641a18.6,18.6,0,0,1-6.641,7.854c-5.209,3.44-5.877,6.715-4.643,11.048.564,1.983,1.374,4.917,2.218,7.369C-1974.682,3063.878-1968.345,3054.7-1961.307,3044.867Z" transform="translate(2122.744 -2873.057)" fill="#de9201"/>
      <g id="Сгруппировать_73477" data-name="Сгруппировать 73477" transform="translate(36.465 23.9)">
        <path id="Контур_34294" data-name="Контур 34294" d="M-2215.838,2511.717c-2.215-.468-3.8,1.289-4.843,3.543a37.4,37.4,0,0,0-2.643,10.344c4.145,5.339,8.758-.2,10.514-7.984C-2212.122,2514.574-2213.329,2512.247-2215.838,2511.717Z" transform="translate(2271.177 -2511.641)" fill="#ff3736"/>
        <path id="Контур_34295" data-name="Контур 34295" d="M-2348.328,2513.865c-10.685-1.106-20.527.359-25.344.986a2.639,2.639,0,0,0-.837.254c-9.357,4.668-18.233,12.422-21.865,26.232-2.832,10.767,15.381,7.707,15.409,3.426.074-11.454,5.083-16.452,7.679-19.716a11.013,11.013,0,0,0,2.448-4.83s20.052,1.309,22.508,1.476C-2343.623,2522.014-2341.232,2514.6-2348.328,2513.865Z" transform="translate(2401.761 -2513.014)" fill="#ff3736"/>
        <path id="Контур_34296" data-name="Контур 34296" d="M-2408.372,2613.065c-5.677,2.628-8.011,5-8.867,9.537a3.241,3.241,0,0,0,2.167,3.849c.151,4.172,3.589,2.944,3.589,2.944a3.7,3.7,0,0,0,5.015,2.432c3.287,2.887,4.521.071,5.34-2.2,1.113,1.148,3.936.9,5.218-1.753a10.214,10.214,0,0,0-.336-10.068C-2400.174,2611.751-2405.195,2611.6-2408.372,2613.065Z" transform="translate(2417.303 -2587.464)" fill="#ff3736"/>
      </g>
      <path id="Контур_34297" data-name="Контур 34297" d="M-2176.885,2520.979c2.883,3.664,5.112,11.447,1.289,18.094-.706-1.6-2.444-2.2-5.742-1.811-5.485.648-8.465,2.923-11.812,5.072-.269-6.041,1.066-16.859,1.786-21.178,1.573-1.55,4.822-2.85,8.606-2.614A8.855,8.855,0,0,1-2176.885,2520.979Z" transform="translate(2284.938 -2492.918)" fill="#efe8cc"/>
      <g id="Сгруппировать_73478" data-name="Сгруппировать 73478" transform="translate(94.042 27.83)">
        <path id="Контур_34298" data-name="Контур 34298" d="M-2143.268,2531.572c1.1-2.853,2.558-3.407,3.557-2.731,1.714,1.161,3.4,4.071,1.07,6.14a8.868,8.868,0,0,0-2.769,5.109c2.288-.318,4.223.427,4.176.7s-1.137,3-1.137,3a8.152,8.152,0,0,0-4.623-.647c.151-5.271,1.146-7.127,2.886-9.336s1.356-2.751.751-2.8-1.6.616-2.869,2.434A5.878,5.878,0,0,1-2143.268,2531.572Z" transform="translate(2153.292 -2528.333)" fill="#89a855"/>
        <path id="Контур_34299" data-name="Контур 34299" d="M-2174.289,2537.14s-4.016.249-6.528.677c.463-2.394,1.551-6.289,3.851-8.279l-1.993-1.966c-3.31,2.819-4.342,6.826-4.812,10.056a19.257,19.257,0,0,0-.03,4.125s4.979-2.3,9.323-1.716A10.462,10.462,0,0,1-2174.289,2537.14Z" transform="translate(2183.901 -2527.573)" fill="#89a855"/>
        <path id="Контур_34300" data-name="Контур 34300" d="M-2166.707,2547.142c-.117.779-1.57,9.075-1.919,10.969a30,30,0,0,1,3.409-1.091l1.02-9.917Z" transform="translate(2172.394 -2542.286)" fill="#89a855"/>
      </g>
      <g id="Сгруппировать_73480" data-name="Сгруппировать 73480" transform="translate(36.465 23.9)">
        <g id="Сгруппировать_73479" data-name="Сгруппировать 73479" clip-path="url(#clip-path-7)">
          <path id="Контур_34301" data-name="Контур 34301" d="M-2423.84,2568.164c-1.915,4.745-2.671,10.558-3.816,13.918-.853,2.5-4.218,4.345-2.042,8.125,3.076,5.345,8.46,5.679,10.06,3.513.652,1.059,1.474,3.043,3.3,3.26,3.663.435,2.912-3.706,3.831-5.575s5.494,6.369-3.585,9.99-20.481.9-24.269-5.483,4.988-11.711,7.93-15.582C-2429.573,2576.571-2428.363,2571.4-2423.84,2568.164Z" transform="translate(2435.375 -2554.221)" fill="#c30114" opacity="0.5"/>
          <path id="Контур_34302" data-name="Контур 34302" d="M-2272.208,2547.644c-7.011-.727-11.478-1.71-11.133-9.559-6.369-.52-18.377-1.224-25.816-1.491,1.594,2.683-.629,6.348-2.454,9.408C-2313.824,2549.713-2280.1,2563.772-2272.208,2547.644Z" transform="translate(2337.762 -2530.439)" fill="#c30114" opacity="0.5"/>
        </g>
      </g>
      <path id="Контур_34304" data-name="Контур 34304" d="M-2219.142,2544.523c.731.025,1.456.156,2.172.224a2.172,2.172,0,0,0,1.972-.518l.067.065a1.392,1.392,0,0,1-.806,1.146,2.959,2.959,0,0,1-1.33.237,5.089,5.089,0,0,1-1.087-.337,3.678,3.678,0,0,1-.992-.724Z" transform="translate(2304.495 -2512.291)" fill="#171329"/>
      <path id="Контур_34305" data-name="Контур 34305" d="M-2355,2661.536a6.741,6.741,0,0,0-.911,2.58,3.452,3.452,0,0,0,.418,2.623l-.072.06a1.9,1.9,0,0,1-1.117-1.221,4.081,4.081,0,0,1-.155-1.6,4.732,4.732,0,0,1,.564-1.45,2.717,2.717,0,0,1,1.194-1.042Z" transform="translate(2408.222 -2600.621)" fill="#171329"/>
    </g>
    <path id="Контур_34519" data-name="Контур 34519" d="M-4488.86,730.155l-43.825-37.034-77.5-65.491h0l-79.336-67.044-54.868-46.367h0l-64.656-54.639h0l-18.1-15.3c-13.347-11.3-34.379-3.476-36.556,14.192l-8.162,57.9-54.454,388.048,0-.008-18.039,128.412c-2.612,19.553,19.729,32.15,35.252,20.855l22.348-15.238h0L-4659.232,883.1l103.851-70.875,59.559-40.649C-4478.85,759.988-4475.659,741.307-4488.86,730.155Z" transform="translate(5740.707 3095.991)" fill="#17a44e" fill-rule="evenodd"/>
    <text id="_2" data-name="2" transform="translate(1006 3822)" fill="#161636" font-size="320" font-family="ExoSoft-BoldItalic, ExoSoft-BoldItalic ☞" font-weight="700" font-style="italic" letter-spacing="0.03em"><tspan x="-183.04" y="0">2</tspan></text>
    <text id="Шаг" transform="translate(1067 3795)" fill="#fff" font-size="72" font-family="ExoSoft-BoldItalic, ExoSoft-BoldItalic ☞" font-weight="700" font-style="italic" letter-spacing="0.03em"><tspan x="-158.544" y="0">ШАГ</tspan></text>
    <path id="Контур_34524" data-name="Контур 34524" d="M-1427.989,1561.108c1.419-2.955,3.326-7.53,7.164-5.912-3.393-10.79,2.541-22.669,10.889-15.557-5.64-12.467-6.071-25.562,1.275-30.353,6.853-4.47,13.916-3.47,18.554,4.42-7.6-10.6,8.087-13.74,17.814-14.819-3.256-2.531,1.447-4.33,4.353-5.285s18.26-.645,21.107-2.245c-14.637,10.816-22.791,20.425-39.971,35.229-15.922,13.72-34.275,33.719-47.765,42.74A21.843,21.843,0,0,0-1427.989,1561.108Z" transform="translate(3012.904 3475.26) rotate(45)" fill="#fff"/>
  </g>
</svg>
