<svg xmlns="http://www.w3.org/2000/svg" xmlns:xlink="http://www.w3.org/1999/xlink" width="470.856" height="666.298" viewBox="0 0 470.856 666.298">
  <defs>
    <linearGradient id="linear-gradient" x1="-0.072" y1="0.738" x2="0.749" y2="0.411" gradientUnits="objectBoundingBox">
      <stop offset="0.018" stop-color="#f6f3e7"/>
      <stop offset="0.258" stop-color="#f2efe3"/>
      <stop offset="0.47" stop-color="#e7e5d9"/>
      <stop offset="0.672" stop-color="#d5d3c9"/>
      <stop offset="0.866" stop-color="#bcbab2"/>
      <stop offset="0.995" stop-color="#a7a69f"/>
    </linearGradient>
    <linearGradient id="linear-gradient-2" x1="0.649" y1="0.11" x2="0.37" y2="1.076" xlink:href="#linear-gradient"/>
    <clipPath id="clip-path">
      <path id="Контур_34327" data-name="Контур 34327" d="M-1729.665,1493.945c-6.679-8.349-18.814-8.572-23.267-5.9s-5.789,10.242-3.34,12.8a6.524,6.524,0,0,0,.979.852,2.553,2.553,0,0,0-1.264,2.131c-.127,1.331,1.167,2.672,3.247,3.589,1.419.964,3.194,1.632,4.854,2.693a13.736,13.736,0,0,0,8.5,2.437,6.794,6.794,0,0,0,1.635-.292,14.7,14.7,0,0,1,5.651,6.462,53.573,53.573,0,0,1-5.9.385,81.157,81.157,0,0,1-17.923-2c-6.009-1.414-7.459,7.57-1,8.572s19.037,1,26.83,0a14.8,14.8,0,0,0,2.144-.43c4.025.573,6.094-2.521,6.094-7.363C-1722.429,1512.982-1722.985,1502.294-1729.665,1493.945Z" transform="translate(1761.715 -1486.527)" fill="none"/>
    </clipPath>
    <clipPath id="clip-path-2">
      <path id="Контур_34341" data-name="Контур 34341" d="M-2155.624,2267.936c-4.839,16.4-11.355,49.095-12.691,54.438s-17.367,35.068-24.38,56.776-23.877,59.046-23.877,59.046l-19.55-6.517s9.361-43.178,25.392-70.564,25.716-34.4,26.05-43.083,0-41.748,4.676-55.44S-2149.612,2247.563-2155.624,2267.936Z" transform="translate(2236.122 -2252.445)" fill="#ff3736"/>
    </clipPath>
    <linearGradient id="linear-gradient-3" x1="1.026" y1="0.171" x2="0.344" y2="0.566" xlink:href="#linear-gradient"/>
    <clipPath id="clip-path-3">
      <path id="Контур_34344" data-name="Контур 34344" d="M-1891.737,2077.736c-.6,5.342-1.67,16.7-2.338,21.375s5.678,8.015,14.027,8.683,15.029-1,16.365-6.345,3.674-19.7,5.677-30.726-5.344-21.041-19.37-19.037S-1890.835,2069.709-1891.737,2077.736Z" transform="translate(1894.124 -2051.428)" fill="url(#linear-gradient)"/>
    </clipPath>
    <clipPath id="clip-path-4">
      <path id="Контур_34351" data-name="Контур 34351" d="M-1901.629,1509.756a5.172,5.172,0,0,0-1.04-1.112c-3.492-2.828-8.851-1.044-10.353,1.169-1.054,1.552-.386,3.537-.208,4.968a13.554,13.554,0,0,1-.043,2.853,23.449,23.449,0,0,1-1.586-1.768c-.9-1.033-2.338.167-1.753,2.338a4.344,4.344,0,0,0,2.732,2.716,13.7,13.7,0,0,1-.974,2.575,17.584,17.584,0,0,1,1.582,3.517,7.438,7.438,0,0,1-.668,5.344h7.352s.788-3.841,2.083-5.052c2.8-2.615,4.091-3.792,4.008-6.6C-1900.687,1514.394-1900.325,1511.669-1901.629,1509.756Z" transform="translate(1916.749 -1507.187)" fill="#ff3736"/>
    </clipPath>
    <clipPath id="clip-path-5">
      <path id="Контур_34356" data-name="Контур 34356" d="M-2197.8,1679.018c-5.222,1.152-10.557,2.663-15.574,4.3a2.853,2.853,0,0,0-.842.44c-8.824,6.7-16.551,16.444-17.953,31.268-3.186,2.877-4.428,5.57-4.428,9.494,0,2,1.5,3.674,3.089,3.674,1,4.425,4.426,2.421,4.426,2.421a4.023,4.023,0,0,0,5.844,1.586c4.091,2.421,4.843-.835,5.26-3.423,1.419,1,4.384.167,5.219-2.922a11.1,11.1,0,0,0-2.386-10.683c-.092-.1-.183-.175-.274-.267-1.5-11.056,2.5-16.974,4.51-20.777a11.971,11.971,0,0,0,1.642-5.65s13.47-2.115,16.142-2.227S-2190.231,1677.348-2197.8,1679.018Z" transform="translate(2236.598 -1678.807)" fill="none"/>
    </clipPath>
    <linearGradient id="linear-gradient-5" x1="-0.235" y1="0.765" x2="0.692" y2="0.278" gradientUnits="objectBoundingBox">
      <stop offset="0.241" stop-color="#d98b01"/>
      <stop offset="0.304" stop-color="#e09001"/>
      <stop offset="0.491" stop-color="#f19b01"/>
      <stop offset="0.695" stop-color="#fba201"/>
      <stop offset="0.944" stop-color="#ffa501"/>
    </linearGradient>
    <clipPath id="clip-path-6">
      <path id="Контур_34360" data-name="Контур 34360" d="M-1968.024,1687.117c-2.221-8.819-2.028-12.615-2.644-18.313-.445-4.119-.78-9.574-5.789-12.8-3.612-2.327-7.921-2.642-12.595-2.014v0l-.042.007q-1.426.193-2.895.493l-.068.013q-1.495.3-3.023.69c-4.6-.961-10.633,1.928-15.862,2.83-2,1.419-.209,8.016,2.505,8.224a33.67,33.67,0,0,1,7.942-.536c-3.2,11.634-4.845,27.77-5.02,36.271-.334,16.2,2.449,30.837,8.349,32.646-10.576-5.705,5.177-19.12,16.448-23.629a116.152,116.152,0,0,1,20.957-6.178A49.47,49.47,0,0,1-1968.024,1687.117Z" transform="translate(2011.795 -1653.705)" fill="none"/>
    </clipPath>
    <clipPath id="clip-path-7">
      <path id="Контур_34365" data-name="Контур 34365" d="M-1748.8,1898.051c8.085-3.22,25.215-9.185,32.73-11.856s16.031-5.01,21.875-3.34,6.5,10.373,6.847,24.046c.344,13.548,2.839,50.1,18.035,71.638-7.181,9.685-15.864,33.063-18.035,39.242-9.351-24.714-15.53-41.58-17.534-67.129s.946-40.8.612-45.31-1-2.839-4.008-1.336-30.837,16.754-38.686,21.1S-1770.276,1906.6-1748.8,1898.051Z" transform="translate(1759.729 -1882.293)" fill="none"/>
    </clipPath>
    <linearGradient id="linear-gradient-6" x1="0.693" y1="0.073" x2="0.413" y2="0.628" xlink:href="#linear-gradient"/>
    <clipPath id="clip-path-8">
      <path id="Контур_34368" data-name="Контур 34368" d="M-1924.33,1989.827c.594,5.824,3.077,14.162,10.353,16.866,8.238,3.061,19.66-.061,26.885-3.674a100.131,100.131,0,0,0,13.86-8.183c-2.227,1-5.344-.668-8.35-6.512a33.228,33.228,0,0,1-3.34-19.037c.835-5.344,1.691-6.93,3.841-7.681-10.353,4.008-22.376,7.848-31.728,12.19C-1922.235,1978.173-1924.887,1984.372-1924.33,1989.827Z" transform="translate(1924.4 -1961.606)" fill="url(#linear-gradient-2)"/>
    </clipPath>
    <clipPath id="clip-path-9">
      <path id="Контур_34375" data-name="Контур 34375" d="M-1848.617,1573.886c-.209.418-1.557.541-3.006.334-.877-.125-1.252-.167-1.754-.25-.537-.089-.584.71-.334,1.8.3,1.292.742,2.734,1.837,3.381a3.465,3.465,0,0,0,2.547.167c.292-.125.282-.961.334-1.8C-1848.909,1576.182-1848.784,1575.138-1848.617,1573.886Z" transform="translate(1853.856 -1573.886)" fill="#c30114"/>
    </clipPath>
    <linearGradient id="linear-gradient-8" x1="0.738" y1="0.086" x2="0.095" y2="1.091" gradientUnits="objectBoundingBox">
      <stop offset="0.018" stop-color="#f6f3e7"/>
      <stop offset="0.61" stop-color="#a7a69f"/>
    </linearGradient>
    <linearGradient id="linear-gradient-9" x1="0.175" y1="0.827" x2="0.659" y2="0.119" gradientUnits="objectBoundingBox">
      <stop offset="0.067" stop-color="#b23901"/>
      <stop offset="0.092" stop-color="#b64301"/>
      <stop offset="0.188" stop-color="#c76501"/>
      <stop offset="0.28" stop-color="#d47d01"/>
      <stop offset="0.364" stop-color="#db8c01"/>
      <stop offset="0.433" stop-color="#de9201"/>
      <stop offset="0.616" stop-color="#e59601"/>
      <stop offset="0.891" stop-color="#faa201"/>
      <stop offset="0.944" stop-color="#ffa501"/>
    </linearGradient>
    <clipPath id="clip-path-10">
      <path id="Контур_34396" data-name="Контур 34396" d="M-1262.915,2399.037a16.3,16.3,0,0,0-8.23-3.454c-2.508-.375-6.839.616-9.693,1.4-7.347,2-15.2,9.317-18.369,9.685-7.181.835-10.24,11.192-12.018,18.455a20.2,20.2,0,0,1-5.51,9.725c-4.87,4.722-4.923,8.353-2.734,12.732,1,2,2.457,4.974,3.851,7.422,1.157,2.032,2.273,3.706,3.051,4.156a8.652,8.652,0,0,0,.837.424c-2.425-2.945-.557-10.767,9.182-32.04,8.461-18.48,20.98-25.616,29.39-27.386,8.051-1.7,12.464.651,12.874,7.021C-1260.208,2403.7-1261.009,2400.723-1262.915,2399.037Z" transform="translate(1320.854 -2395.501)" fill="none"/>
    </clipPath>
  </defs>
  <g id="Сгруппировать_73597" data-name="Сгруппировать 73597" transform="translate(-1280 -3487.635)">
    <path id="Контур_34521" data-name="Контур 34521" d="M-2703.786,1699.257c-5.6-3.879-13.676-10.1-16.767-2.427-6.838-18.936-18.153-32.275-29.855-14.5.108-1.314-1.19-4.937-1.117-6.077,1.071-16.9-2.525-38.747-15.753-40.034-15.944-1.554-19.634,20.562-26.163,27.731-4.681-25.544-17.836-10.977-24.327-1.779-.381-7.034-4.425-4.414-6.709-2.64a27.9,27.9,0,0,1-8.459,3.835c16.131-.459,34.417,12.629,55.6,20.342a974.1,974.1,0,0,0,94.866,28.928C-2689.518,1710.836-2698.067,1703.215-2703.786,1699.257Z" transform="translate(4263.563 1876.86)" fill="#fff" opacity="0.699"/>
    <g id="Main_1" data-name="Main 1" transform="translate(1372.118 3487.635)">
      <g id="Сгруппировать_73507" data-name="Сгруппировать 73507" transform="translate(176.077)">
        <g id="Сгруппировать_73484" data-name="Сгруппировать 73484" transform="translate(73.682 6.217)">
          <path id="Контур_34321" data-name="Контур 34321" d="M-1716.375,1583.8c-2.226-1.448-6.433,1.264-4.451,3.962,1.444,1.966,4.09,2.664,6.478,4.19a13.735,13.735,0,0,0,8.5,2.437c2.3-.164,4.5-1.015,4.28-5.8S-1716.375,1583.8-1716.375,1583.8Z" transform="translate(1727.607 -1568.366)" fill="#ff3736"/>
          <path id="Контур_34322" data-name="Контур 34322" d="M-1732.423,1684.041c1.447.251,2.783,9.24-.64,9.1S-1738.57,1682.976-1732.423,1684.041Z" transform="translate(1740.287 -1653.328)" fill="#171329"/>
          <path id="Контур_34323" data-name="Контур 34323" d="M-1756.494,1682.755a81.164,81.164,0,0,0,17.923,2c5.789,0,9.24-1.336,11.355,0s4.342,5.566-3.451,6.568-20.373,1-26.83,0S-1762.5,1681.341-1756.494,1682.755Z" transform="translate(1761.715 -1652.182)" fill="#ff3736"/>
          <path id="Контур_34324" data-name="Контур 34324" d="M-1715.868,1511.868c8.794,5.288,6.123,12.691,10.242,13.359s6.234-2.449,6.234-7.348-.557-15.586-7.237-23.935-18.814-8.572-23.267-5.9-5.789,10.242-3.34,12.8,3.674.89,3.674.89-.334,3.563,3.9,3.451c.334,2.338,3.9,2.115,3.9,2.115S-1724.218,1510.755-1715.868,1511.868Z" transform="translate(1738.678 -1486.527)" fill="#ff3736"/>
          <path id="Контур_34325" data-name="Контур 34325" d="M-1728.52,1584.6c.285-2.984,3.545-3.4,7.417-.5s4.08,5.643-.174,5.142S-1728.717,1586.653-1728.52,1584.6Z" transform="translate(1733.677 -1567.293)" fill="#ff3736"/>
          <g id="Сгруппировать_73483" data-name="Сгруппировать 73483">
            <g id="Сгруппировать_73482" data-name="Сгруппировать 73482" clip-path="url(#clip-path)">
              <path id="Контур_34326" data-name="Контур 34326" d="M-1710.931,1573.439c-.334-3.618-4.969-14.537-5.789-13.192a2.4,2.4,0,0,1-2.5.334c-1.38-.789-1.544-2.755-3.006-3.173-2.922-.835-3.841,2.588-5.594,2.922s-2.421-.5-2.922-2.254a5.04,5.04,0,0,1-4.008-4.258,3.405,3.405,0,0,1-4.425-2.088c-1.92.919-3.924-1-4.759-2.338s-2,2.088-1.67,4.926,3.674,8.767,9.017,10.6c4.873,1.675,9.532,2.907,13.735,1.977a18.667,18.667,0,0,1,3.631,4.661c.793,1.712,1.419,2.964.418,3.465-1.406.7-12.336,1.645-22.209-.751-.668-3.006,1.419-4.843,2.588-5.844-5.845.25-8.35,7.514-5.177,11.689s18.082,2.323,28.221,0A5.912,5.912,0,0,0-1710.931,1573.439Z" transform="translate(1748.157 -1539.387)" fill="#c30114" opacity="0.5"/>
            </g>
          </g>
          <path id="Контур_34328" data-name="Контур 34328" d="M-1575.26,1693.9a22.074,22.074,0,0,0,1.329,2.78,9.756,9.756,0,0,0,1.745,2.51l-.065.076a3,3,0,0,1-1.551-.813,5.253,5.253,0,0,1-1.008-1.292,4.66,4.66,0,0,1-.545-3.226Z" transform="translate(1604.351 -1661.724)" fill="#171329"/>
          <path id="Контур_34329" data-name="Контур 34329" d="M-1698.111,1519.405a5.908,5.908,0,0,0-2.067,1.817,11.007,11.007,0,0,0-1.26,2.327,19.5,19.5,0,0,0-.87,2.6,28.078,28.078,0,0,0-.587,2.86l-.1.019a10.674,10.674,0,0,1,.63-5.863,7.885,7.885,0,0,1,1.622-2.5,4.524,4.524,0,0,1,2.617-1.362Z" transform="translate(1712.243 -1514.22)" fill="#171329"/>
          <path id="Контур_34330" data-name="Контур 34330" d="M-1660.246,1622.325a5.4,5.4,0,0,0,1.792.291" transform="translate(1675.989 -1601.255)" fill="none" stroke="#171329" stroke-miterlimit="10" stroke-width="4.305"/>
          <path id="Контур_34331" data-name="Контур 34331" d="M-1670.351,1541.382a11.424,11.424,0,0,0-3.529,3.57c-.234.336-.429.7-.635,1.069l-.3.56c-.088.173-.169.333-.251.522a24.883,24.883,0,0,0-.8,2.534l-.1.009a8.609,8.609,0,0,1,.137-2.728,9.322,9.322,0,0,1,1.111-2.5,7.481,7.481,0,0,1,1.863-2.006,6.819,6.819,0,0,1,2.486-1.124Z" transform="translate(1689.318 -1532.789)" fill="#171329"/>
          <path id="Контур_34332" data-name="Контур 34332" d="M-1646.8,1573.663a5.2,5.2,0,0,0-2.614,2.2,10.243,10.243,0,0,0-1.612,3.013,3.6,3.6,0,0,0-.046,2.846,2.7,2.7,0,0,0,2.392,1.08,9.492,9.492,0,0,0,3.269-.452,4.009,4.009,0,0,0,1.355-.658,1.861,1.861,0,0,0,.336-.34c.021-.047.073.019,0-.114a1.425,1.425,0,0,0-.533-.324l-.181-.067a.843.843,0,0,1-.261-.123.674.674,0,0,1-.246-.368.679.679,0,0,1,.226-.7.668.668,0,0,1,.38-.15.682.682,0,0,1,.093,0l.152.013a1.365,1.365,0,0,1,.293.048,4.625,4.625,0,0,1,1.751.976,4.142,4.142,0,0,0,3.13,1.283l.025.1a4.205,4.205,0,0,1-3.42-.969,4.84,4.84,0,0,0-1.6-.779,1.688,1.688,0,0,0-.39-.027c-.01.02-.027.045.024.05l.223.062a2.241,2.241,0,0,1,.83.422.844.844,0,0,1,.279.891,1.74,1.74,0,0,1-.551.761,4.805,4.805,0,0,1-1.62.862,10.431,10.431,0,0,1-3.6.591,3.547,3.547,0,0,1-3.16-1.629,4.243,4.243,0,0,1,.116-3.582,10.964,10.964,0,0,1,1.944-3.075,8.772,8.772,0,0,1,1.338-1.241,3.146,3.146,0,0,1,1.681-.7Z" transform="translate(1669.216 -1560.059)" fill="#171329"/>
          <path id="Контур_34333" data-name="Контур 34333" d="M-1719.831,1580.6a4.895,4.895,0,0,1,4.031-.3,9.994,9.994,0,0,1,3.53,2.057c.951.947,2.1,1.911,2.188,3.79a1.785,1.785,0,0,1-.675,1.3,2.511,2.511,0,0,1-.588.307c-.193.041-.385.088-.572.11a5.14,5.14,0,0,1-2.018-.367l.011-.1a6.392,6.392,0,0,0,1.89-.048,1.289,1.289,0,0,0,1.164-1.2,5.267,5.267,0,0,0-2.062-3.043,11.764,11.764,0,0,0-3.168-2.079,5.488,5.488,0,0,0-3.7-.338Z" transform="translate(1726.33 -1565.502)" fill="#171329"/>
        </g>
        <g id="Сгруппировать_73487" data-name="Сгруппировать 73487" transform="translate(0.074 125.055)">
          <path id="Контур_34337" data-name="Контур 34337" d="M-2155.624,2267.936c-4.839,16.4-11.355,49.095-12.691,54.438s-17.367,35.068-24.38,56.776-23.877,59.046-23.877,59.046l-19.55-6.517s9.361-43.178,25.392-70.564,25.716-34.4,26.05-43.083,0-41.748,4.676-55.44S-2149.612,2247.563-2155.624,2267.936Z" transform="translate(2236.122 -2252.445)" fill="#ff3736"/>
          <g id="Сгруппировать_73486" data-name="Сгруппировать 73486" clip-path="url(#clip-path-2)">
            <path id="Контур_34338" data-name="Контур 34338" d="M-2214.037,2319.849c-11.912,2.449-16.365.334-20.707,18.7-2.492,10.544-4.23,18.035-7.347,21.6-7.952,9.088-36.07,67.686-32.507,92.623s-36.376,32.122-28.43-3.755,53.367-79.961,52.922-102.227,3.562-50.319,6.234-57.444S-2199.008,2291.127-2214.037,2319.849Z" transform="translate(2293.533 -2281.647)" fill="#c30114" opacity="0.5"/>
            <path id="Контур_34339" data-name="Контур 34339" d="M-2319.928,3076.959c.668,4.453,21.6,12.023,25.382,8.684l-16.476,47.425s-43.417,16.7-42.749,15.7S-2333.51,3099.892-2319.928,3076.959Z" transform="translate(2335.523 -2949.029)" fill="url(#linear-gradient-3)"/>
            <path id="Контур_34340" data-name="Контур 34340" d="M-2314.3,3076.959c-8.2,13.85-25.723,45.631-32.818,61.855,1.641,8.277,6,5.945,12.1,5.431,2.824-1.063,10.272.679,12.878-.311,4.865-3.493,12.33-15.708,11.177-23.781-1.3-9.09,1.621-22.654,6.229-36.661C-2309.733,3081.515-2314.009,3078.932-2314.3,3076.959Z" transform="translate(2329.9 -2949.029)" fill="#dddad1" style="mix-blend-mode: multiply;isolation: isolate"/>
          </g>
        </g>
        <g id="Сгруппировать_73489" data-name="Сгруппировать 73489" transform="translate(53.138 93.866)">
          <path id="Контур_34342" data-name="Контур 34342" d="M-1891.737,2077.736c-.6,5.342-1.67,16.7-2.338,21.375s5.678,8.015,14.027,8.683,15.029-1,16.365-6.345,3.674-19.7,5.677-30.726-5.344-21.041-19.37-19.037S-1890.835,2069.709-1891.737,2077.736Z" transform="translate(1894.124 -2051.428)" fill="url(#linear-gradient)"/>
          <g id="Сгруппировать_73488" data-name="Сгруппировать 73488" clip-path="url(#clip-path-3)">
            <path id="Контур_34343" data-name="Контур 34343" d="M-1934.52,2192.282c-17.812,9.128-19.37,16.921-19.593,32.73-.187,13.242-33.62,17.367-30.5.445s3.785-36.069,17.367-36.737,31.171-2.894,31.171-2.894Z" transform="translate(1970.75 -2164.972)" fill="#dddad1" style="mix-blend-mode: multiply;isolation: isolate"/>
          </g>
        </g>
        <path id="Контур_34345" data-name="Контур 34345" d="M-1677.16,1994.3c4.618-2.771,3.34-9.518.835-19.538s-5.956-14.528-8.683-13.693c-9.205,3.444-7.682,13.693-6.179,22.544S-1683,1997.811-1677.16,1994.3Z" transform="translate(1776.769 -1881.144)" fill="#171329"/>
        <g id="Сгруппировать_73490" data-name="Сгруппировать 73490" transform="translate(64.444 33.418)">
          <path id="Контур_34346" data-name="Контур 34346" d="M-1821.047,1665.434c.891-3.562,3.391-3.87,5.9-3.451,3.34.557,6.29,2.7,10.994,3.368-1.141-.25-2.814.1-2.867,4.036-.056,4.175,1.5,4.954,2.226,5.065-2.783-.222-6.123-.445-9.685-.556S-1822.246,1670.231-1821.047,1665.434Z" transform="translate(1821.255 -1661.838)" fill="#1d9b21"/>
          <path id="Контур_34347" data-name="Контур 34347" d="M-1727.189,1683.9a1.958,1.958,0,0,0-1.2.516,2.142,2.142,0,0,0-.515.976,10.8,10.8,0,0,0-.237,2.591,17.881,17.881,0,0,0,.124,2.7,2.9,2.9,0,0,0,1.208,2.224l-.015.1a2.74,2.74,0,0,1-1.945-2.092,10.238,10.238,0,0,1-.373-2.935,7.5,7.5,0,0,1,.52-2.911,2.328,2.328,0,0,1,.984-1.116,2.149,2.149,0,0,1,1.473-.145Z" transform="translate(1744.28 -1680.338)" fill="#171329"/>
        </g>
        <path id="Контур_34348" data-name="Контур 34348" d="M-1927.446,1466.9c-.585-2.171.858-3.371,1.753-2.338a23.45,23.45,0,0,0,1.585,1.768,13.536,13.536,0,0,0,.043-2.853c-.178-1.43-.846-3.416.209-4.968,1.5-2.213,6.862-4,10.353-1.169a5.162,5.162,0,0,1,1.04,1.112c4.025-3.923,4.045-6.738,2.578-8.153a7.155,7.155,0,0,1-1.447.891s.779-3.451-2.247-4.729c-1.256,1.428-3.292,1.89-3.431,3.17-.125-.877-.076-1.5-1.732-2.46-2.035,1.9-7.4,4.019-7.174,8.249-2.449,2.449-4.9,6.123-2.95,11.021a51.205,51.205,0,0,0,3.177,5.751,13.712,13.712,0,0,0,.974-2.576A4.343,4.343,0,0,1-1927.446,1466.9Z" transform="translate(1977.208 -1446.457)" fill="#171329"/>
        <g id="Сгруппировать_73492" data-name="Сгруппировать 73492" transform="translate(49.627 9.423)">
          <path id="Контур_34349" data-name="Контур 34349" d="M-1901.629,1509.756a5.172,5.172,0,0,0-1.04-1.112c-3.492-2.828-8.851-1.044-10.353,1.169-1.054,1.552-.386,3.537-.208,4.968a13.554,13.554,0,0,1-.043,2.853,23.449,23.449,0,0,1-1.586-1.768c-.9-1.033-2.338.167-1.753,2.338a4.344,4.344,0,0,0,2.732,2.716,13.7,13.7,0,0,1-.974,2.575,17.584,17.584,0,0,1,1.582,3.517,7.438,7.438,0,0,1-.668,5.344h7.352s.788-3.841,2.083-5.052c2.8-2.615,4.091-3.792,4.008-6.6C-1900.687,1514.394-1900.325,1511.669-1901.629,1509.756Z" transform="translate(1916.749 -1507.187)" fill="#ff3736"/>
          <g id="Сгруппировать_73491" data-name="Сгруппировать 73491" clip-path="url(#clip-path-4)">
            <path id="Контур_34350" data-name="Контур 34350" d="M-1894.932,1598.473a4.222,4.222,0,0,1-4.008,1.837c-2.5-.208-5.344-.111-7.431-2.254-1.279-1.313-1.586-1.837-2.839-1.837s-1.252.835-.083,3.674,2.171,5.844.918,7.681,7.352,0,7.352,0S-1895.433,1602.481-1894.932,1598.473Z" transform="translate(1911.182 -1582.405)" fill="#c30114" opacity="0.5"/>
          </g>
        </g>
        <path id="Контур_34352" data-name="Контур 34352" d="M-2174.466,1679.018c-5.222,1.152-10.558,2.663-15.574,4.3a2.845,2.845,0,0,0-.842.44c-9.053,6.869-16.969,16.934-18.067,32.412-.856,12.067,17.976,5.133,17.144.557-2.227-12.246,2.115-18.591,4.23-22.6a11.977,11.977,0,0,0,1.642-5.65s13.47-2.115,16.142-2.227S-2166.9,1677.348-2174.466,1679.018Z" transform="translate(2213.263 -1642.756)" fill="#ff3736"/>
        <path id="Контур_34353" data-name="Контур 34353" d="M-2229.05,1887.134c-5.533,3.949-7.548,6.952-7.548,11.968,0,2,1.5,3.674,3.089,3.674,1,4.425,4.426,2.421,4.426,2.421a4.023,4.023,0,0,0,5.844,1.586c4.091,2.422,4.843-.835,5.26-3.423,1.419,1,4.384.167,5.219-2.922a11.1,11.1,0,0,0-2.386-10.683C-2220.56,1884.08-2225.953,1884.924-2229.05,1887.134Z" transform="translate(2236.598 -1817.336)" fill="#ff3736"/>
        <g id="Сгруппировать_73494" data-name="Сгруппировать 73494" transform="translate(0 36.051)">
          <g id="Сгруппировать_73493" data-name="Сгруппировать 73493" clip-path="url(#clip-path-5)">
            <path id="Контур_34354" data-name="Контур 34354" d="M-2071.186,1685.368c-1.558,1.224-3.061,5.566-3.006,5.956a52.8,52.8,0,0,1-10.242,1.447c.779,5.455-3.228,6.568-3.117,15.7,3.841-11.188,6.68-10.8,11.745-12.58S-2062.669,1685.368-2071.186,1685.368Z" transform="translate(2110.678 -1684.35)" fill="#c30114" opacity="0.5"/>
            <path id="Контур_34355" data-name="Контур 34355" d="M-2257.332,1720.526a30.654,30.654,0,0,0-11.021,19.7,42.788,42.788,0,0,0-.39,10.966c-1.447,1.837-3.451,5.316-2.616,7.654,1.128,3.158,4.591,4.258,8.016,3.507s1.336,6.93,5.594,4.676c1.272,3.1-1.7,5.372-10.937,5.093-10.537-.317-19.371-7.849-12.858-21.374S-2267.517,1723.365-2257.332,1720.526Z" transform="translate(2276.452 -1714.053)" fill="#c30114" opacity="0.5"/>
          </g>
        </g>
        <path id="Контур_34357" data-name="Контур 34357" d="M-1962.432,1655.529c7.515-2,14.573-3.077,20.039.445,5.01,3.228,5.344,8.683,5.789,12.8.616,5.7.422,9.494,2.644,18.313a49.465,49.465,0,0,0,8.266,17.7,116.144,116.144,0,0,0-20.957,6.179c-11.272,4.509-27.024,17.923-16.448,23.629-5.9-1.809-8.683-16.448-8.349-32.646C-1971.211,1690.432-1968.276,1664.88-1962.432,1655.529Z" transform="translate(2012.612 -1621.521)" fill="url(#linear-gradient-5)"/>
        <path id="Контур_34358" data-name="Контур 34358" d="M-1990.364,1656.795c-1.54.257-3.114.6-4.714,1-4.6-.962-10.633,1.927-15.862,2.83-2,1.42-.209,8.016,2.505,8.224a33.663,33.663,0,0,1,7.942-.536c-.476,1.732-.914,3.571-1.322,5.463,3.286-1.525,3.92-6.059,6.989-8.684C-1990.775,1661.632-1989.523,1659.586-1990.364,1656.795Z" transform="translate(2046.675 -1624.159)" fill="#1d9b21"/>
        <g id="Сгруппировать_73496" data-name="Сгруппировать 73496" transform="translate(34.88 32.156)">
          <g id="Сгруппировать_73495" data-name="Сгруппировать 73495" clip-path="url(#clip-path-6)">
            <path id="Контур_34359" data-name="Контур 34359" d="M-2054.12,1700.077c-1.336,2.171-8.851,2.672-16.031,3.507a62.04,62.04,0,0,1-9.185.334,11.458,11.458,0,0,1,.668,4.676,81.351,81.351,0,0,1-1.336,8.182s10.854-7.514,14.194-7.849-3.173,40.411-.334,51.933,12.357,13.359,12.357,13.359-6.68-8.85,2.672-14.027c-7.849-2.5-9.017-17.534-9.352-27.887S-2058.295,1704.92-2054.12,1700.077Z" transform="translate(2069.421 -1692.882)" fill="#efd2c0" style="mix-blend-mode: multiply;isolation: isolate"/>
          </g>
        </g>
        <path id="Контур_34361" data-name="Контур 34361" d="M-1748.8,1898.051c8.085-3.22,25.215-9.185,32.73-11.856s16.031-5.01,21.875-3.34,6.433,9.979,6.847,24.046c.4,13.546,2.839,50.1,18.035,71.638-7.181,9.685-15.864,33.063-18.035,39.242-9.351-24.714-15.53-41.58-17.534-67.129s.946-40.8.612-45.31-1-2.839-4.008-1.336-30.837,16.754-38.686,21.1S-1770.276,1906.6-1748.8,1898.051Z" transform="translate(1833.719 -1814.67)" fill="#ff3736"/>
        <g id="Сгруппировать_73498" data-name="Сгруппировать 73498" transform="translate(73.99 67.623)">
          <g id="Сгруппировать_73497" data-name="Сгруппировать 73497" clip-path="url(#clip-path-7)">
            <path id="Контур_34362" data-name="Контур 34362" d="M-1833.174,1960.53c-4.008,6.68,1.336,15.14,7.125,13.359,11.237-3.457,32.837-13,33.843-11.578,1.225,1.726-.612,13.582,1.336,38.741,1.49,19.247,3.117,29.39,8.461,41.858a67.443,67.443,0,0,0,12.468,18.7s-13.488,21.772-15.14,19.148c-7.57-12.023-14.472-48.983-15.586-73.475-1.163-25.587,1.608-30.009-.445-32.062-1.559-1.559-9.574,3.117-17.812,8.015s-23.6,10.242-38.741,16.031C-1874.324,2005.641-1875.923,1971.217-1833.174,1960.53Z" transform="translate(1851.668 -1948.391)" fill="#c30114" opacity="0.5"/>
            <path id="Контур_34363" data-name="Контур 34363" d="M-1385.293,2386.38c5.789-12.246,20.929-25.716,23.824-14.361l23.824,51.432-16.922,26.05S-1386.517,2418.775-1385.293,2386.38Z" transform="translate(1443.418 -2292.416)" fill="url(#linear-gradient-6)"/>
            <path id="Контур_34364" data-name="Контур 34364" d="M-1361.692,2449.219a67.447,67.447,0,0,1-12.469-18.7,88.864,88.864,0,0,1-3.983-11.2,46.587,46.587,0,0,0-7.15,10.639c-.505,13.376,4.647,26.46,10.868,37.221C-1370.065,2462.734-1361.692,2449.219-1361.692,2449.219Z" transform="translate(1443.418 -2335.997)" fill="#dddad1" style="mix-blend-mode: multiply;isolation: isolate"/>
          </g>
        </g>
        <g id="Сгруппировать_73500" data-name="Сгруппировать 73500" transform="translate(48.44 79.929)">
          <path id="Контур_34366" data-name="Контур 34366" d="M-1924.33,1989.827c.594,5.824,3.077,14.162,10.353,16.866,8.238,3.061,19.66-.061,26.885-3.674a100.131,100.131,0,0,0,13.86-8.183c-2.227,1-5.344-.668-8.35-6.512a33.228,33.228,0,0,1-3.34-19.037c.835-5.344,1.691-6.93,3.841-7.681-10.353,4.008-22.376,7.848-31.728,12.19C-1922.235,1978.173-1924.887,1984.372-1924.33,1989.827Z" transform="translate(1924.4 -1961.606)" fill="url(#linear-gradient-2)"/>
          <g id="Сгруппировать_73499" data-name="Сгруппировать 73499" clip-path="url(#clip-path-8)">
            <path id="Контур_34367" data-name="Контур 34367" d="M-1942.443,2060.98c-2.449,3.785-.668,12.469,11.132,12.023,15.378-.58,26.941-10.464,26.941-10.464l12.023,18.034s-18.035,13.582-34.734,14.7-25.377-11.917-24.937-22.488C-1951.571,2062.093-1942.443,2060.98-1942.443,2060.98Z" transform="translate(1947.745 -2045.561)" fill="#dddad1" style="mix-blend-mode: multiply;isolation: isolate"/>
          </g>
        </g>
        <path id="Контур_34369" data-name="Контур 34369" d="M-1865.721,1533.694c.584.877,2.13,3.259,2.612,3.982a11.517,11.517,0,0,1-2.115.835c-.2.1-.724-2-.891-3.006-.321-.183-3.674,1.336-5.455-2.115C-1869.524,1532.327-1866.162,1533.517-1865.721,1533.694Z" transform="translate(1928.207 -1519.533)" fill="#c30114"/>
        <path id="Контур_34370" data-name="Контур 34370" d="M-1870.7,1531.225c.293-.938,1.861-1.133,2.9-1a10.2,10.2,0,0,1,2.325.711l-.354.681a16.127,16.127,0,0,0-2.42-.593A3.543,3.543,0,0,0-1870.7,1531.225Z" transform="translate(1927.469 -1517.197)" fill="#171329"/>
        <path id="Контур_34371" data-name="Контур 34371" d="M-1824.552,1533.551c.707-.33,1.4-.279,1.569.013a1.319,1.319,0,0,1,.083.751s0-.513-.584-.387a6.534,6.534,0,0,0-.927.267Z" transform="translate(1888.484 -1519.845)" fill="#171329"/>
        <g id="Сгруппировать_73502" data-name="Сгруппировать 73502" transform="translate(59.385 19.772)">
          <path id="Контур_34372" data-name="Контур 34372" d="M-1848.617,1573.886c-.209.418-1.557.541-3.006.334-.877-.125-1.252-.167-1.754-.25-.537-.089-.584.71-.334,1.8.3,1.292.742,2.734,1.837,3.381a3.465,3.465,0,0,0,2.547.167c.292-.125.282-.961.334-1.8C-1848.909,1576.182-1848.784,1575.138-1848.617,1573.886Z" transform="translate(1853.856 -1573.886)" fill="#c30114"/>
          <g id="Сгруппировать_73501" data-name="Сгруппировать 73501" clip-path="url(#clip-path-9)">
            <path id="Контур_34373" data-name="Контур 34373" d="M-1864.2,1579.434a7.091,7.091,0,0,1,4.453-.7,2.243,2.243,0,0,1,1.893,1.559l.807-4.9-7.348-.167Z" transform="translate(1862.76 -1575.023)" fill="#171329"/>
            <path id="Контур_34374" data-name="Контур 34374" d="M-1855.478,1568.7c.139.64.535.867,1.837,1a11.386,11.386,0,0,0,2.672-.083s-.344.43-.195.751c.167.362.612.334,1.058-.055s1-2.171.306-2.255S-1856.619,1566.192-1855.478,1568.7Z" transform="translate(1855.346 -1568.377)" fill="#fff"/>
          </g>
        </g>
        <path id="Контур_34378" data-name="Контур 34378" d="M-1877.551,1698.93c2.409,4.94,3.1,11.847,4.18,19.172-2.853-1.01-5.511-.946-9.964-.39-7.453.932-11.077,3.228-15,4.621a132.675,132.675,0,0,1,1.916-22.2,17.042,17.042,0,0,1,10.283-3.921C-1879.8,1695.892-1878.72,1697.763-1877.551,1698.93Z" transform="translate(1950.826 -1657.433)" fill="#d98b32"/>
        <path id="Контур_34379" data-name="Контур 34379" d="M-1871.5,1683.585c2.409,4.94,2.362,11.956,3.437,19.281-1.816-1.432-4.866-2.36-10.819-1.45-6.27.958-9.8,2.973-13.71,5.229a132.667,132.667,0,0,1,1.916-22.2,16.532,16.532,0,0,1,10.283-3.921C-1873.878,1680.287-1872.542,1682.291-1871.5,1683.585Z" transform="translate(1945.976 -1644.192)" fill="#fff"/>
        <path id="Контур_34380" data-name="Контур 34380" d="M-1868.8,1698.783c1.068-3.767,4-5.832,7.106-5.221s4.834,3.759,1.546,7.153c-1.848,1.907-4.774,5.6-5.475,7.476,2.585-1.4,7.828-1.979,7.822-1.645s.218,3.455.218,3.455-8.2,1.082-11.36,3.365c-1.118-6.143,3.627-10.069,5.912-13.369s1.513-3.759.507-3.554-2.474,1.4-4.079,4.048A6.3,6.3,0,0,1-1868.8,1698.783Z" transform="translate(1926.127 -1655.132)" fill="#1d9b21"/>
        <path id="Контур_34381" data-name="Контур 34381" d="M-1794.8,1694.65c1-2.115,3.785-.78,5.177,1.447.673,1.076,1.928,3.526.835,4.62a4.571,4.571,0,0,0-1.113,1.447s2.126.89,2.338,4.342c.167,2.727-.557,4.453-2,4.342a10.11,10.11,0,0,1-3.34-1.28l.724-3.006s1.319,1.02,2.282.724c.724-.222.746-1.478-.056-2.449a3.593,3.593,0,0,0-2.561-1.28l-.334-2.616s2.06-1,2.5-2.115-.334-2.783-1.113-2.783-2.06,1.391-2.06,1.391Z" transform="translate(1863.347 -1655.244)" fill="#1d9b21"/>
        <path id="Контур_34382" data-name="Контур 34382" d="M-1911.651,1997.958s-16.822,4.99-23.453,10.669c-14.132,12.1-3.451,16.838-3.451,16.838a14.408,14.408,0,0,1,4.342-16.059C-1927.279,2003.293-1915,1999.231-1911.651,1997.958Z" transform="translate(1988.068 -1912.388)" fill="#171329"/>
        <path id="Контур_34383" data-name="Контур 34383" d="M-1887.049,2232.9a12.966,12.966,0,0,0,5.646,3.271,23.316,23.316,0,0,0,6.521.862,41.748,41.748,0,0,0,12.975-2.263l.032.1a30.235,30.235,0,0,1-3.073,1.346c-1.055.375-2.134.677-3.22.972a32.164,32.164,0,0,1-6.716.851,21.893,21.893,0,0,1-6.744-1.115,14.152,14.152,0,0,1-3.075-1.562,11.336,11.336,0,0,1-2.417-2.385Z" transform="translate(1941.344 -2110.881)" fill="#171329"/>
        <path id="Контур_34384" data-name="Контур 34384" d="M-1382.351,2382.683a30.741,30.741,0,0,1,1.58-3.6c.624-1.156,1.317-2.273,2.041-3.373a40.716,40.716,0,0,1,5.1-6.045,23.377,23.377,0,0,1,6.643-4.473,8.171,8.171,0,0,1,4.1-.6,4.509,4.509,0,0,1,1.914.892,4.4,4.4,0,0,1,1.195,1.622l-.086.052a4.79,4.79,0,0,0-1.3-1.4,4.091,4.091,0,0,0-1.784-.64,7.568,7.568,0,0,0-3.728.787,24.344,24.344,0,0,0-6.273,4.491,47.37,47.37,0,0,0-9.318,12.337Z" transform="translate(1514.894 -2222.08)" fill="#171329"/>
        <path id="Контур_34385" data-name="Контур 34385" d="M-2135.472,3077.988a5.24,5.24,0,0,0,2.313,2.222,22.672,22.672,0,0,0,2.924,1.542,57.214,57.214,0,0,0,6.188,2.454,59.448,59.448,0,0,0,6.364,1.968,26.616,26.616,0,0,0,3.251.678,10.589,10.589,0,0,0,3.313.118l.033.095a15.017,15.017,0,0,1-6.745-.128,47.331,47.331,0,0,1-6.548-1.787,45.889,45.889,0,0,1-6.223-2.709,22.465,22.465,0,0,1-2.877-1.807,9.157,9.157,0,0,1-1.263-1.143,3.032,3.032,0,0,1-.828-1.487Z" transform="translate(2151.246 -2824.844)" fill="#171329"/>
        <path id="Контур_34386" data-name="Контур 34386" d="M-1864.924,2384.692a27.347,27.347,0,0,1-10.813.919c-6.262-.5-11.188-2.505-13.192-5.344C-1889.931,2384.442-1882.75,2392.708-1864.924,2384.692Z" transform="translate(1942.95 -2235.379)" fill="#171329"/>
        <path id="Контур_34387" data-name="Контур 34387" d="M-2011.28,1681.33a3.612,3.612,0,0,0-.16,2.2,16.722,16.722,0,0,0,.5,2.148,13.948,13.948,0,0,0,.763,2.06,3.72,3.72,0,0,0,1.374,1.731l-.008.1a3,3,0,0,1-2.008-1.375,7.723,7.723,0,0,1-1.08-2.228,8.284,8.284,0,0,1-.334-2.453,2.9,2.9,0,0,1,.892-2.259Z" transform="translate(2047.044 -1644.818)" fill="#171329"/>
        <path id="Контур_34388" data-name="Контур 34388" d="M-1407.4,1978.258a2.641,2.641,0,0,1-.171-2.279,5.838,5.838,0,0,1,1.069-1.936,6.609,6.609,0,0,1,3.573-2.29l.061.079a19.914,19.914,0,0,0-2.861,2.846,9.026,9.026,0,0,0-1.136,1.652,3.214,3.214,0,0,0-.438,1.911Z" transform="translate(1536.352 -1890.25)" fill="#171329"/>
        <path id="Контур_34389" data-name="Контур 34389" d="M-2129.937,1958.816a6.571,6.571,0,0,0-.506,3.336,6.885,6.885,0,0,0,.311,1.671,2.292,2.292,0,0,0,.921,1.354l-.039.092a1.54,1.54,0,0,1-.986-.391,3.135,3.135,0,0,1-.639-.795,4.55,4.55,0,0,1-.566-1.852,4.577,4.577,0,0,1,.253-1.9,3.078,3.078,0,0,1,1.161-1.559Z" transform="translate(2147.766 -1879.282)" fill="#171329"/>
        <g id="Сгруппировать_73506" data-name="Сгруппировать 73506" transform="translate(142.027 147.251)">
          <path id="Контур_34392" data-name="Контур 34392" d="M-1228.689,2422.565c-8.41,1.77-20.929,8.906-29.39,27.386-9.74,21.273-11.608,29.094-9.182,32.04,4.069,1.795,8.875.06,12.077-4.209,3.34-4.453,9.479-15.836,13.136-18.7,8.238-6.457,9.173-2.8,16.253-8.46,5.974-4.779,9.825-13.956,9.979-21.033C-1216.225,2423.217-1220.638,2420.87-1228.689,2422.565Z" transform="translate(1276.444 -2417.915)" fill="#171329"/>
          <path id="Контур_34393" data-name="Контур 34393" d="M-1243.013,2396.006a28.118,28.118,0,0,0-12.031,2.787c-6.554,2.949-14.027,8.461-22.711,27.164-5.535,11.921-10.454,22.993-9.73,29.464,1.157,2.032,2.273,3.705,3.051,4.156a8.532,8.532,0,0,0,.837.424c-2.426-2.946-.557-10.767,9.183-32.04,8.461-18.48,20.98-25.616,29.39-27.386,8.051-1.7,12.464.652,12.873,7.022.076-3.474-.726-6.449-2.631-8.135A16.3,16.3,0,0,0-1243.013,2396.006Z" transform="translate(1292.78 -2395.924)" fill="url(#linear-gradient-8)"/>
          <path id="Контур_34394" data-name="Контур 34394" d="M-1305.886,2425.533c8.683-18.7,16.156-24.214,22.71-27.164a28.107,28.107,0,0,1,12.031-2.787c-2.508-.375-6.839.616-9.693,1.4-7.347,2-15.2,9.317-18.369,9.685-7.181.835-10.24,11.192-12.018,18.455a20.2,20.2,0,0,1-5.51,9.725c-4.87,4.722-4.923,8.353-2.734,12.732,1,2,2.457,4.974,3.851,7.422C-1316.341,2448.526-1311.421,2437.454-1305.886,2425.533Z" transform="translate(1320.912 -2395.501)" fill="url(#linear-gradient-9)"/>
          <g id="Сгруппировать_73505" data-name="Сгруппировать 73505" transform="translate(0.057)">
            <g id="Сгруппировать_73504" data-name="Сгруппировать 73504" clip-path="url(#clip-path-10)">
              <path id="Контур_34395" data-name="Контур 34395" d="M-1454.039,2489.615c2.763-11.375,19.974-8.932,26.237-13.141,5.984-4.021,6.179-10.679,8.489-14.708s12.974-7.814,20.411-9.088,24.7-8.422,13.1,3.878-17.074,42.881-41.727,55.084S-1458.879,2509.544-1454.039,2489.615Z" transform="translate(1434.615 -2441.085)" fill="#cec9b7" style="mix-blend-mode: multiply;isolation: isolate"/>
            </g>
          </g>
          <path id="Контур_34397" data-name="Контур 34397" d="M-1301.957,2471.833a12,12,0,0,0-3.863,4.084,25.348,25.348,0,0,0-2.391,5.121c-.606,1.8-1.205,3.6-1.681,5.45-.246.922-.473,1.851-.691,2.785a24.116,24.116,0,0,1-.819,2.875,21.16,21.16,0,0,1-2.93,5.252,20.311,20.311,0,0,1-2,2.249c-.688.68-1.353,1.3-1.959,2.009a9.127,9.127,0,0,0-2.386,4.812,11.06,11.06,0,0,0,.942,5.494l-.089.045a10.891,10.891,0,0,1-1.379-5.579,9.69,9.69,0,0,1,2.3-5.256c1.188-1.542,2.74-2.735,3.838-4.32a20.207,20.207,0,0,0,2.722-5.055c.678-1.8,1.016-3.708,1.569-5.559a54.155,54.155,0,0,1,1.836-5.5,25.642,25.642,0,0,1,2.68-5.133,11.686,11.686,0,0,1,4.255-3.872Z" transform="translate(1321.225 -2459.914)" fill="#171329"/>
        </g>
      </g>
    </g>
    <path id="Контур_34520" data-name="Контур 34520" d="M-4488.86,730.155l-43.825-37.034-77.5-65.491h0l-79.336-67.044-54.868-46.367h0l-64.656-54.639h0l-18.1-15.3c-13.347-11.3-34.379-3.476-36.556,14.192l-8.162,57.9-54.454,388.048,0-.008-18.039,128.412c-2.612,19.553,19.729,32.15,35.252,20.855l22.348-15.238h0L-4659.232,883.1l103.851-70.875,59.559-40.649C-4478.85,759.988-4475.659,741.307-4488.86,730.155Z" transform="translate(6224.563 3095.991)" fill="#17a44e" fill-rule="evenodd"/>
    <text id="_3" data-name="3" transform="translate(1488 3822)" fill="#161636" font-size="320" font-family="ExoSoft-BoldItalic, ExoSoft-BoldItalic ☞" font-weight="700" font-style="italic" letter-spacing="0.03em"><tspan x="-178.88" y="0">3</tspan></text>
    <text id="Шаг" transform="translate(1551 3795)" fill="#fff" font-size="72" font-family="ExoSoft-BoldItalic, ExoSoft-BoldItalic ☞" font-weight="700" font-style="italic" letter-spacing="0.03em"><tspan x="-158.544" y="0">ШАГ</tspan></text>
    <path id="Контур_34522" data-name="Контур 34522" d="M-2625.319,2135.436c-2.834-.836-5.272-.828-6.082,2.157-4.85-6.091-11.49-9.887-16.669-2.533-.021-.51-.979-1.758-1.007-2.192-.395-6.208-3.549-13.473-11.126-13.358-9.967.15-11.953,8.759-16.514,12.246-3.681-9.951-13.94-3.076-19.685,1.661-.141-3.164-3.83-1.572-6-.5a51.985,51.985,0,0,1-8.378,2.845c15.205-2.109,30.809.97,46.007,2.654,18.44,2.043,31.292,1.538,48.761-3.468C-2618.958,2135.412-2622.484,2136.273-2625.319,2135.436Z" transform="translate(4159.354 1522.157)" fill="#fff"/>
  </g>
</svg>
